<svg width="135" height="40" viewBox="0 0 135 40" fill="none" xmlns="http://www.w3.org/2000/svg">
<path d="M134 35.1908C134 35.6914 133.901 36.1871 133.708 36.6495C133.516 37.1119 133.234 37.532 132.878 37.8857C132.522 38.2395 132.1 38.52 131.635 38.7112C131.171 38.9024 130.673 39.0005 130.17 39H4.83491C3.81906 39.0011 2.84438 38.6004 2.12523 37.886C1.40607 37.1717 1.00132 36.2022 1 35.1908V4.81412C1.00132 3.80227 1.40591 2.8323 2.12492 2.11718C2.84393 1.40206 3.8186 1.00026 4.83491 1H130.169C130.672 1 131.17 1.09866 131.635 1.29035C132.1 1.48204 132.522 1.763 132.878 2.11719C133.233 2.47138 133.515 2.89185 133.708 3.3546C133.9 3.81734 133.999 4.31329 133.999 4.81412L134 35.1908Z" fill="white"/>
<path d="M130.269 40H4.73159C3.47816 39.9997 2.27603 39.5024 1.38897 38.6171C0.501911 37.7317 0.00238493 36.5308 0 35.2777L0 4.7273C0.00185427 3.47359 0.501051 2.27181 1.38808 1.38558C2.27511 0.499356 3.47754 0.00105818 4.73159 0L130.268 0C131.522 0.00158618 132.724 0.500053 133.611 1.38616C134.498 2.27228 134.998 3.47375 135 4.7273V35.2777C135.002 37.8824 132.876 40 130.269 40Z" fill="#A6A6A6"/>
<path d="M134 35.1908C134 35.6914 133.901 36.1871 133.708 36.6495C133.516 37.1119 133.234 37.532 132.878 37.8857C132.522 38.2395 132.1 38.52 131.635 38.7112C131.171 38.9024 130.673 39.0005 130.17 39H4.83491C3.81906 39.0011 2.84438 38.6004 2.12523 37.886C1.40607 37.1717 1.00132 36.2022 1 35.1908V4.81412C1.00132 3.80227 1.40591 2.8323 2.12492 2.11718C2.84393 1.40206 3.8186 1.00026 4.83491 1H130.169C130.672 1 131.17 1.09866 131.635 1.29035C132.1 1.48204 132.522 1.763 132.878 2.11719C133.233 2.47138 133.515 2.89185 133.708 3.3546C133.9 3.81734 133.999 4.31329 133.999 4.81412L134 35.1908Z" fill="#1E1E1E"/>
<path d="M30.5398 19.8267C30.5105 16.542 33.2098 14.944 33.3333 14.8696C31.8045 12.6244 29.435 12.3177 28.6023 12.2932C26.6122 12.0823 24.6818 13.4928 23.668 13.4928C22.634 13.4928 21.0729 12.3136 19.3903 12.3483C17.2252 12.3819 15.1996 13.6446 14.0887 15.6054C11.7961 19.6036 13.506 25.4789 15.7025 28.7106C16.8012 30.2944 18.0852 32.0606 19.7657 31.9984C21.4098 31.9311 22.0239 30.9436 24.0079 30.9436C25.9738 30.9436 26.5505 31.9984 28.2644 31.9587C30.0289 31.9311 31.1398 30.3688 32.2001 28.7718C33.4698 26.9587 33.9798 25.1711 34 25.0794C33.9595 25.0652 30.5742 23.7627 30.5398 19.8267ZM27.3022 10.1673C28.1865 9.05336 28.7915 7.53789 28.6236 6C27.3437 6.05707 25.7431 6.89175 24.8214 7.98122C24.0059 8.94125 23.2775 10.5148 23.4656 11.9946C24.9033 12.1026 26.3795 11.2639 27.3022 10.1673Z" fill="white"/>
<path d="M130.267 0H63L89.3472 40H130.267C131.521 39.9989 132.723 39.5009 133.611 38.6151C134.498 37.7293 134.998 36.5281 135 35.2747V4.7273C134.998 3.47367 134.498 2.27204 133.611 1.38587C132.724 0.499705 131.521 0.00132228 130.267 0V0Z" fill="url(#paint0_linear_508_2813)"/>
<path d="M53.2734 31.1976H50.9946L49.7464 27.3776H45.4076L44.2186 31.1976H42L46.2996 18.1925H48.9547L53.2734 31.1976ZM49.3701 25.7749L48.2412 22.379C48.1218 22.0321 47.8971 21.2151 47.568 19.9291H47.5278C47.3954 20.4822 47.1836 21.2991 46.8937 22.379L45.7839 25.7749H49.3701ZM64.3089 26.3935C64.3089 27.9883 63.8644 29.249 62.9744 30.1744C62.1777 30.9982 61.1873 31.4096 60.0063 31.4096C58.7309 31.4096 57.8138 30.9669 57.2569 30.0796V35H55.1176V24.9022C55.1176 23.9006 55.0906 22.8735 55.0384 21.82H56.9198L57.0392 23.3064H57.0793C57.7928 22.1865 58.8754 21.6265 60.3284 21.6265C61.4643 21.6265 62.4125 22.0633 63.1711 22.938C63.9286 23.8146 64.3089 24.9657 64.3089 26.3935ZM62.1295 26.4697C62.1295 25.557 61.9188 24.8045 61.4954 24.2113C61.0328 23.5947 60.4117 23.2859 59.633 23.2859C59.1052 23.2859 58.6256 23.4579 58.1971 23.797C57.7677 24.139 57.4867 24.5856 57.3553 25.1387C57.2966 25.3456 57.2632 25.5585 57.2559 25.7729V27.3375C57.2559 28.0186 57.4707 28.5942 57.9001 29.0652C58.3296 29.5343 58.8875 29.7698 59.5738 29.7698C60.3796 29.7698 61.0067 29.4659 61.4552 28.863C61.9048 28.258 62.1295 27.4606 62.1295 26.4697ZM75.3836 26.3935C75.3836 27.9883 74.9391 29.249 74.0491 30.1744C73.2514 30.9982 72.262 31.4096 71.08 31.4096C69.8046 31.4096 68.8875 30.9669 68.3306 30.0796V35H66.1913V24.9022C66.1913 23.9006 66.1642 22.8735 66.1121 21.82H67.9935L68.1129 23.3064H68.153C68.8654 22.1865 69.9481 21.6265 71.4021 21.6265C72.5369 21.6265 73.4852 22.0633 74.2458 22.938C75.0023 23.8146 75.3836 24.9657 75.3836 26.3935ZM73.2032 26.4697C73.2032 25.557 72.9915 24.8045 72.568 24.2113C72.1055 23.5947 71.4864 23.2859 70.7077 23.2859C70.1799 23.2859 69.7003 23.4579 69.2698 23.797C68.8404 24.139 68.5604 24.5856 68.429 25.1387C68.3637 25.3967 68.3286 25.6068 68.3286 25.7729V27.3375C68.3286 28.0186 68.5443 28.5942 68.9718 29.0652C69.4013 29.5333 69.9592 29.7698 70.6475 29.7698C71.4543 29.7698 72.0814 29.4659 72.5289 28.863C72.9784 28.258 73.2032 27.4606 73.2032 26.4697ZM87.7658 27.5496C87.7658 28.6568 87.3684 29.5568 86.5787 30.2516C85.7098 31.0099 84.4967 31.3901 82.9414 31.3901C81.5045 31.3901 80.3526 31.1204 79.4836 30.58L79.9783 28.8434C80.9165 29.3848 81.947 29.6545 83.0688 29.6545C83.8755 29.6545 84.5027 29.4767 84.9502 29.1239C85.3987 28.7701 85.6255 28.2971 85.6255 27.7069C85.6255 27.1782 85.4379 26.7355 85.0696 26.3749C84.6993 26.0153 84.0873 25.6801 83.2273 25.3723C80.8894 24.523 79.7194 23.281 79.7194 21.647C79.7194 20.5799 80.1328 19.7063 80.9576 19.0232C81.7824 18.3411 82.8761 18 84.2368 18C85.4519 18 86.4643 18.2062 87.2681 18.6176L86.7313 20.316C85.9747 19.9173 85.1208 19.718 84.1655 19.718C83.411 19.718 82.8189 19.8988 82.3955 20.2584C82.0393 20.5799 81.8587 20.9718 81.8587 21.4369C81.8587 21.95 82.0644 22.3761 82.4738 22.7103C82.829 23.0181 83.4772 23.3533 84.4144 23.7129C85.5643 24.1644 86.4092 24.6902 86.95 25.2941C87.4949 25.898 87.7658 26.6515 87.7658 27.5496ZM94.8569 23.3836H92.4989V27.9365C92.4989 29.0946 92.9143 29.6721 93.7471 29.6721C94.1294 29.6721 94.4465 29.6408 94.6974 29.5754L94.7566 31.1575C94.3351 31.3109 93.7803 31.3881 93.0929 31.3881C92.248 31.3881 91.5878 31.137 91.1112 30.6347C90.6366 30.1324 90.3977 29.291 90.3977 28.1066V23.3797H88.993V21.8161H90.3977V20.0991L92.4989 19.4815V21.8161H94.8569V23.3836ZM105.475 26.4316C105.475 27.873 105.052 29.0564 104.207 29.9819C103.323 30.9347 102.147 31.4096 100.681 31.4096C99.2659 31.4096 98.1411 30.9533 97.3022 30.0415C96.4634 29.1278 96.044 27.9766 96.044 26.588C96.044 25.1348 96.4774 23.9445 97.3414 23.0191C98.2073 22.0927 99.3733 21.6295 100.839 21.6295C102.252 21.6295 103.387 22.0868 104.246 22.9995C105.067 23.8849 105.475 25.0283 105.475 26.4316ZM103.258 26.4795C103.258 25.6205 103.067 24.8837 102.685 24.267C102.236 23.5224 101.594 23.15 100.762 23.15C99.9051 23.15 99.2479 23.5224 98.8003 24.267C98.417 24.8837 98.2264 25.6332 98.2264 26.5186C98.2264 27.3785 98.417 28.1173 98.8003 28.732C99.2629 29.4767 99.9081 29.849 100.744 29.849C101.562 29.849 102.203 29.4688 102.666 28.7134C103.06 28.0821 103.258 27.3404 103.258 26.4795ZM112.432 23.6523C112.209 23.6132 111.984 23.5939 111.757 23.5947C111.005 23.5947 110.423 23.8703 110.014 24.4253C109.658 24.9139 109.48 25.5316 109.48 26.2772V31.1976H107.34V24.7732C107.342 23.7888 107.322 22.8045 107.278 21.821H109.142L109.22 23.6152H109.279C109.506 22.9986 109.861 22.5012 110.349 22.1288C110.795 21.8035 111.337 21.6273 111.895 21.6265C112.093 21.6265 112.271 21.6402 112.43 21.6646L112.432 23.6523ZM121.999 26.0651C122.005 26.3819 121.979 26.6983 121.921 27.0101H115.503C115.527 27.9365 115.838 28.646 116.434 29.1346C116.975 29.5705 117.675 29.7894 118.534 29.7894C119.484 29.7894 120.351 29.6428 121.13 29.3467L121.465 30.792C120.554 31.179 119.479 31.3715 118.237 31.3715C116.744 31.3715 115.572 30.9435 114.72 30.0894C113.869 29.2343 113.442 28.0851 113.442 26.6456C113.442 25.2325 113.839 24.055 114.632 23.1158C115.463 22.1132 116.586 21.6119 117.999 21.6119C119.386 21.6119 120.437 22.1132 121.15 23.1158C121.715 23.9103 121.999 24.8954 121.999 26.0651ZM119.959 25.5247C119.974 24.9061 119.834 24.3735 119.544 23.923C119.174 23.3425 118.604 23.0533 117.84 23.0533C117.141 23.0533 116.571 23.3357 116.137 23.9025C115.781 24.353 115.569 24.8944 115.504 25.5228L119.959 25.5247Z" fill="white"/>
<path d="M45.5423 13.9509C44.9457 13.9509 44.4296 13.9219 44 13.8728V7.42679C44.6008 7.33437 45.208 7.28881 45.8159 7.29054C48.2758 7.29054 49.4086 8.49578 49.4086 10.4604C49.4086 12.7266 48.0705 13.9509 45.5423 13.9509ZM45.9025 8.11707C45.5705 8.11707 45.2878 8.13711 45.0533 8.1852V13.0853C45.1801 13.1053 45.4236 13.1144 45.7656 13.1144C47.3774 13.1144 48.2949 12.2007 48.2949 10.4895C48.2949 8.96365 47.4649 8.11707 45.9025 8.11707ZM52.9389 14C51.5525 14 50.6541 12.9691 50.6541 11.5695C50.6541 10.1108 51.5716 9.07085 53.0174 9.07085C54.3836 9.07085 55.3021 10.0527 55.3021 11.4923C55.3021 12.9691 54.3554 14 52.9389 14ZM52.9791 9.83827C52.2175 9.83827 51.7296 10.5476 51.7296 11.5394C51.7296 12.5122 52.2276 13.2216 52.9691 13.2216C53.7105 13.2216 54.2085 12.4631 54.2085 11.5194C54.2085 10.5576 53.7206 9.83827 52.9791 9.83827ZM63.2078 9.16803L61.7238 13.8928H60.757L60.1423 11.841C59.9895 11.3391 59.8622 10.8298 59.761 10.3152H59.7409C59.6634 10.8301 59.5165 11.3461 59.3606 11.841L58.7066 13.8928H57.7298L56.3333 9.16803H57.4169L57.9541 11.4142C58.0809 11.9492 58.1875 12.4541 58.2761 12.931H58.2962C58.3736 12.5333 58.5004 12.0364 58.6865 11.4242L59.3606 9.16903H60.2198L60.8647 11.3761C61.0206 11.9111 61.1474 12.4361 61.246 12.932H61.2741C61.3425 12.4461 61.4502 11.9302 61.5961 11.3761L62.1725 9.16903L63.2078 9.16803ZM68.6707 13.8928H67.6164V11.1798C67.6164 10.3442 67.2944 9.92543 66.6596 9.92543C66.0348 9.92543 65.6052 10.4604 65.6052 11.0826V13.8928H64.5509V10.5185C64.5509 10.1008 64.5408 9.65293 64.5116 9.16702H65.4392L65.4885 9.89638H65.5177C65.8014 9.39144 66.3769 9.07085 67.0218 9.07085C68.0178 9.07085 68.6717 9.82925 68.6717 11.0635L68.6707 13.8928ZM71.5782 13.8928H70.5229V7H71.5782V13.8928ZM75.4224 14C74.0371 14 73.1376 12.9691 73.1376 11.5695C73.1376 10.1108 74.0552 9.07085 75.4999 9.07085C76.8671 9.07085 77.7846 10.0527 77.7846 11.4923C77.7857 12.9691 76.8379 14 75.4224 14ZM75.4616 9.83827C74.7001 9.83827 74.2121 10.5476 74.2121 11.5394C74.2121 12.5122 74.7111 13.2216 75.4506 13.2216C76.1931 13.2216 76.69 12.4631 76.69 11.5194C76.6911 10.5576 76.2041 9.83827 75.4616 9.83827ZM81.9417 13.8928L81.8652 13.3488H81.8371C81.5151 13.7866 81.0453 14 80.4497 14C79.5996 14 78.9959 13.4069 78.9959 12.6094C78.9959 11.4433 80.0111 10.8401 81.7687 10.8401V10.753C81.7687 10.1308 81.4377 9.81924 80.7837 9.81924C80.3159 9.81924 79.9054 9.93645 79.5443 10.1699L79.33 9.47961C79.7686 9.2071 80.3159 9.07085 80.9588 9.07085C82.1983 9.07085 82.824 9.72206 82.824 11.0255V12.7657C82.824 13.2426 82.8451 13.6123 82.8924 13.8938L81.9417 13.8928ZM81.7968 11.5394C80.6258 11.5394 80.0382 11.822 80.0382 12.4922C80.0382 12.9881 80.3411 13.2306 80.7616 13.2306C81.2978 13.2306 81.7968 12.8228 81.7968 12.2688V11.5394ZM87.9439 13.8928L87.8946 13.1344H87.8654C87.5626 13.7075 87.0535 14 86.3422 14C85.1983 14 84.3512 12.9981 84.3512 11.5885C84.3512 10.1108 85.2295 9.06984 86.4288 9.06984C87.0636 9.06984 87.5133 9.28324 87.7668 9.71204H87.7879V7H88.8433V12.6194C88.8433 13.0763 88.8544 13.5041 88.8825 13.8928H87.9439ZM87.7879 11.1126C87.7879 10.4514 87.3483 9.88736 86.6772 9.88736C85.8955 9.88736 85.4177 10.5776 85.4177 11.5494C85.4177 12.5022 85.9137 13.1544 86.6561 13.1544C87.3191 13.1544 87.7879 12.5804 87.7879 11.9001V11.1126ZM95.5346 14C94.1493 14 93.2509 12.9691 93.2509 11.5695C93.2509 10.1108 94.1684 9.07085 95.6131 9.07085C96.9804 9.07085 97.8979 10.0527 97.8979 11.4923C97.8989 12.9691 96.9522 14 95.5346 14ZM95.5739 9.83827C94.8133 9.83827 94.3253 10.5476 94.3253 11.5394C94.3253 12.5122 94.8234 13.2216 95.5638 13.2216C96.3063 13.2216 96.8033 12.4631 96.8033 11.5194C96.8053 10.5576 96.3174 9.83827 95.5739 9.83827ZM103.568 13.8928H102.513V11.1798C102.513 10.3442 102.191 9.92543 101.556 9.92543C100.931 9.92543 100.503 10.4604 100.503 11.0826V13.8928H99.4472V10.5185C99.4472 10.1008 99.4372 9.65293 99.408 9.16702H100.336L100.385 9.89638H100.414C100.697 9.39144 101.273 9.06984 101.917 9.06984C102.913 9.06984 103.568 9.82825 103.568 11.0625V13.8928ZM110.662 9.95549H109.502V12.2498C109.502 12.8338 109.705 13.1254 110.116 13.1254C110.302 13.1254 110.458 13.1053 110.583 13.0763L110.613 13.8738C110.408 13.9519 110.135 13.991 109.795 13.991C108.964 13.991 108.467 13.5341 108.467 12.3379V9.95549H107.774V9.16803H108.467V8.30242L109.502 7.99084V9.16702H110.662V9.95549ZM116.243 13.8928H115.19V11.1998C115.19 10.3542 114.869 9.92644 114.233 9.92644C113.687 9.92644 113.178 10.2961 113.178 11.0445V13.8928H112.125V7H113.178V9.83827H113.199C113.531 9.32331 114.012 9.06984 114.626 9.06984C115.63 9.06984 116.243 9.84729 116.243 11.0826V13.8928ZM121.962 11.7829H118.798C118.818 12.6775 119.413 13.1825 120.293 13.1825C120.761 13.1825 121.191 13.1043 121.572 12.9591L121.736 13.6884C121.287 13.8828 120.759 13.98 120.144 13.98C118.66 13.98 117.782 13.0462 117.782 11.5985C117.782 10.1498 118.681 9.06083 120.025 9.06083C121.238 9.06083 121.998 9.95549 121.998 11.307C122.005 11.4665 121.993 11.6262 121.962 11.7829ZM120.995 11.0345C120.995 10.3051 120.626 9.79018 119.952 9.79018C119.346 9.79018 118.867 10.3152 118.799 11.0345H120.995Z" fill="white"/>
<defs>
<linearGradient id="paint0_linear_508_2813" x1="98.9989" y1="40.1062" x2="98.9989" y2="-104.153" gradientUnits="userSpaceOnUse">
<stop stop-color="#1A1A1A" stop-opacity="0.1"/>
<stop offset="0.123" stop-color="#212121" stop-opacity="0.151"/>
<stop offset="0.308" stop-color="#353535" stop-opacity="0.227"/>
<stop offset="0.532" stop-color="#575757" stop-opacity="0.318"/>
<stop offset="0.783" stop-color="#858585" stop-opacity="0.421"/>
<stop offset="1" stop-color="#B3B3B3" stop-opacity="0.51"/>
</linearGradient>
</defs>
</svg>
