<svg width="48" height="48" viewBox="0 0 48 48" fill="none" xmlns="http://www.w3.org/2000/svg">
<circle cx="24" cy="24" r="24" fill="#D82022"/>
<path fill-rule="evenodd" clip-rule="evenodd" d="M16.4181 16.4559C16.4181 16.7956 16.0273 16.9868 15.7591 16.7781L13.1576 14.7548C12.9475 14.5913 12.9475 14.2736 13.1576 14.1102L15.7591 12.0868C16.0273 11.8782 16.4181 12.0693 16.4181 12.4091V13.6158H26.2178V12.4091C26.2178 12.0693 26.6086 11.8782 26.8768 12.0868L29.4783 14.1102C29.6885 14.2737 29.6885 14.5913 29.4783 14.7548L26.8768 16.7782C26.6086 16.9868 26.2178 16.7957 26.2178 16.4559V15.2491H16.4181V16.4559ZM27.0343 20.1488H15.6013C15.1503 20.1488 14.7846 20.5144 14.7846 20.9654V32.3985C14.7846 32.8494 15.1503 33.2151 15.6013 33.2151H27.0343C27.4853 33.2151 27.8509 32.8494 27.8509 32.3985V20.9654C27.8509 20.5144 27.4853 20.1488 27.0343 20.1488ZM15.6013 18.5155C14.2482 18.5155 13.1514 19.6124 13.1514 20.9654V32.3985C13.1514 33.7515 14.2482 34.8484 15.6013 34.8484H27.0343C28.3873 34.8484 29.4842 33.7515 29.4842 32.3985V20.9654C29.4842 19.6124 28.3873 18.5155 27.0343 18.5155H15.6013ZM35.5909 21.7821H34.3841V31.5818H35.5909C35.9307 31.5818 36.1219 31.9727 35.9132 32.2408L33.8899 34.8423C33.7264 35.0526 33.4087 35.0526 33.2452 34.8423L31.2219 32.2408C31.0133 31.9727 31.2044 31.5818 31.5441 31.5818H32.7508V21.7821H31.5441C31.2044 21.7821 31.0131 21.3913 31.2219 21.1231L33.2452 18.5216C33.4087 18.3114 33.7264 18.3114 33.8899 18.5216L35.9132 21.1231C36.1217 21.3913 35.9307 21.7821 35.5909 21.7821Z" fill="#FAFAFA"/>
</svg>
