<svg width="24" height="25" viewBox="0 0 24 25" fill="none" xmlns="http://www.w3.org/2000/svg">
<path d="M18.71 7.25283C18.617 7.1591 18.5064 7.08471 18.3846 7.03394C18.2627 6.98317 18.132 6.95703 18 6.95703C17.868 6.95703 17.7373 6.98317 17.6154 7.03394C17.4936 7.08471 17.383 7.1591 17.29 7.25283L9.84 14.7128L6.71 11.5728C6.61347 11.4796 6.49953 11.4063 6.37468 11.3571C6.24982 11.3079 6.1165 11.2837 5.98232 11.2861C5.84814 11.2884 5.71573 11.3171 5.59265 11.3706C5.46957 11.4241 5.35823 11.5013 5.265 11.5978C5.17176 11.6944 5.09844 11.8083 5.04924 11.9331C5.00004 12.058 4.9759 12.1913 4.97823 12.3255C4.98055 12.4597 5.00928 12.5921 5.06277 12.7152C5.11626 12.8383 5.19347 12.9496 5.29 13.0428L9.13 16.8828C9.22296 16.9766 9.33356 17.051 9.45542 17.1017C9.57728 17.1525 9.70798 17.1786 9.84 17.1786C9.97201 17.1786 10.1027 17.1525 10.2246 17.1017C10.3464 17.051 10.457 16.9766 10.55 16.8828L18.71 8.72283C18.8115 8.62919 18.8925 8.51554 18.9479 8.38904C19.0033 8.26254 19.0319 8.12593 19.0319 7.98783C19.0319 7.84973 19.0033 7.71312 18.9479 7.58662C18.8925 7.46012 18.8115 7.34647 18.71 7.25283Z" fill="#F1F1F1"/>
</svg>
