<svg width="49" height="48" viewBox="0 0 49 48" fill="none" xmlns="http://www.w3.org/2000/svg">
<circle cx="24.5" cy="24" r="24" fill="#D82022"/>
<g clip-path="url(#clip0_513_3395)">
<path d="M24.4766 12C22.1079 12 19.7923 12.7038 17.8228 14.0224C15.8532 15.3409 14.3182 17.2151 13.4117 19.4078C12.5052 21.6005 12.268 24.0133 12.7301 26.3411C13.1923 28.6689 14.3329 30.8071 16.0079 32.4853C17.6828 34.1635 19.8169 35.3064 22.1401 35.7694C24.4633 36.2324 26.8714 35.9948 29.0599 35.0866C31.2483 34.1783 33.1188 32.6402 34.4348 30.6668C35.7508 28.6935 36.4532 26.3734 36.4532 24C36.4532 20.8174 35.1914 17.7652 32.9454 15.5147C30.6993 13.2643 27.653 12 24.4766 12ZM24.4766 34.5C22.404 34.5 20.3778 33.8842 18.6545 32.7304C16.9311 31.5767 15.588 29.9368 14.7948 28.0182C14.0016 26.0996 13.7941 23.9884 14.1984 21.9516C14.6028 19.9148 15.6009 18.0438 17.0665 16.5754C18.5321 15.1069 20.3993 14.1069 22.4322 13.7018C24.465 13.2966 26.5721 13.5045 28.487 14.2993C30.4018 15.094 32.0385 16.4398 33.19 18.1665C34.3415 19.8932 34.9561 21.9233 34.9561 24C34.9561 26.7848 33.8521 29.4555 31.8868 31.4246C29.9215 33.3938 27.256 34.5 24.4766 34.5Z" fill="#FAFAFA"/>
<path d="M29.2961 19.7255L22.4245 26.6255L19.595 23.7905C19.454 23.6433 19.2605 23.5582 19.057 23.554C18.8534 23.5498 18.6565 23.6267 18.5096 23.768C18.3627 23.9092 18.2778 24.1031 18.2736 24.307C18.2694 24.511 18.3462 24.7083 18.4872 24.8555L21.8406 28.2155C21.9102 28.2857 21.993 28.3415 22.0842 28.3796C22.1754 28.4177 22.2733 28.4373 22.3721 28.4373C22.4709 28.4373 22.5687 28.4177 22.6599 28.3796C22.7512 28.3415 22.834 28.2857 22.9035 28.2155L30.3141 20.7905C30.455 20.6492 30.5342 20.4577 30.5342 20.258C30.5342 20.0582 30.455 19.8667 30.3141 19.7255C30.1731 19.5842 29.9819 19.5049 29.7826 19.5049C29.5833 19.5049 29.3921 19.5842 29.2511 19.7255H29.2961Z" fill="#FAFAFA"/>
</g>
<defs>
<clipPath id="clip0_513_3395">
<rect width="24" height="24" fill="white" transform="translate(12.5 12)"/>
</clipPath>
</defs>
</svg>
