<svg width="48" height="48" viewBox="0 0 48 48" fill="none" xmlns="http://www.w3.org/2000/svg">
<circle cx="24" cy="24" r="24" fill="#D82022"/>
<g clip-path="url(#clip0_513_3357)">
<path d="M20.5315 29.5766C20.1914 29.5766 19.9158 29.3012 19.9158 28.9613C19.9158 28.6214 20.1914 28.346 20.5315 28.346H25.1166C25.4566 28.346 25.7322 28.6214 25.7322 28.9613C25.7322 29.3012 25.4566 29.5766 25.1166 29.5766H20.5315ZM20.5315 20.8552C20.1914 20.8552 19.9158 20.5798 19.9158 20.2399C19.9158 19.9 20.1914 19.6246 20.5315 19.6246H28.6639C29.0039 19.6246 29.2795 19.9 29.2795 20.2399C29.2795 20.5798 29.0039 20.8552 28.6639 20.8552H20.5315ZM15.7998 12.5986H33.3936C33.7884 12.5986 34.1461 12.7588 34.406 13.0186C34.6659 13.2784 34.8262 13.6358 34.8262 14.0304V35.1669C34.8262 35.5614 34.6659 35.9189 34.406 36.1787C34.1461 36.4385 33.7884 36.5986 33.3936 36.5986H15.7998C15.405 36.5986 15.0473 36.4385 14.7874 36.1787C14.5275 35.9208 14.3672 35.5634 14.3672 35.1688V14.0304C14.3672 13.6358 14.5275 13.2784 14.7874 13.0186C15.0473 12.7588 15.405 12.5986 15.7998 12.5986ZM33.3956 13.8292H15.7998C15.7451 13.8292 15.6942 13.8526 15.6571 13.8878C15.6219 13.9269 15.5985 13.9757 15.5985 14.0304V35.1669C15.5985 35.2216 15.6219 35.2724 15.6591 35.3075C15.6962 35.3446 15.747 35.3681 15.8017 35.3681H33.3956C33.4503 35.3681 33.5011 35.3446 33.5363 35.3075C33.5734 35.2704 33.5969 35.2196 33.5969 35.1669V14.0304C33.5969 13.9757 33.5734 13.9249 33.5363 13.8878C33.4991 13.8526 33.4503 13.8292 33.3956 13.8292ZM20.5315 25.2149C20.1914 25.2149 19.9158 24.9395 19.9158 24.5996C19.9158 24.2597 20.1914 23.9843 20.5315 23.9843H28.6639C29.0039 23.9843 29.2795 24.2597 29.2795 24.5996C29.2795 24.9395 29.0039 25.2149 28.6639 25.2149H20.5315Z" fill="#FAFAFA"/>
</g>
<defs>
<clipPath id="clip0_513_3357">
<rect width="21" height="25" fill="white" transform="translate(14 12)"/>
</clipPath>
</defs>
</svg>
