<svg width="135" height="40" viewBox="0 0 135 40" fill="none" xmlns="http://www.w3.org/2000/svg">
<path d="M130 40H5C2.2 40 0 37.8 0 35V5C0 2.2 2.2 0 5 0H130C132.8 0 135 2.2 135 5V35C135 37.8 132.8 40 130 40Z" fill="#1E1E1E"/>
<path d="M130 0.8C132.3 0.8 134.2 2.7 134.2 5V35C134.2 37.3 132.3 39.2 130 39.2H5C2.7 39.2 0.8 37.3 0.8 35V5C0.8 2.7 2.7 0.8 5 0.8H130ZM130 0H5C2.2 0 0 2.3 0 5V35C0 37.8 2.2 40 5 40H130C132.8 40 135 37.8 135 35V5C135 2.3 132.8 0 130 0Z" fill="#A6A6A6"/>
<path d="M68.1277 21.7278C65.7163 21.7278 63.8073 23.5385 63.8073 26.0533C63.8073 28.4675 65.7163 30.3787 68.1277 30.3787C70.539 30.3787 72.448 28.568 72.448 26.0533C72.448 23.4379 70.539 21.7278 68.1277 21.7278ZM68.1277 28.568C66.8215 28.568 65.7163 27.4615 65.7163 25.9527C65.7163 24.4438 66.8215 23.3373 68.1277 23.3373C69.4338 23.3373 70.539 24.3432 70.539 25.9527C70.539 27.4615 69.4338 28.568 68.1277 28.568ZM58.7837 21.7278C56.3723 21.7278 54.4634 23.5385 54.4634 26.0533C54.4634 28.4675 56.3723 30.3787 58.7837 30.3787C61.195 30.3787 63.104 28.568 63.104 26.0533C63.104 23.4379 61.195 21.7278 58.7837 21.7278ZM58.7837 28.568C57.4775 28.568 56.3723 27.4615 56.3723 25.9527C56.3723 24.4438 57.4775 23.3373 58.7837 23.3373C60.0898 23.3373 61.195 24.3432 61.195 25.9527C61.195 27.4615 60.0898 28.568 58.7837 28.568ZM47.6312 23.0355V24.8462H51.9515C51.8511 25.8521 51.4492 26.6568 50.9468 27.1598C50.344 27.7633 49.3392 28.4675 47.6312 28.4675C44.9184 28.4675 42.909 26.355 42.909 23.6391C42.909 20.9231 45.0189 18.8107 47.6312 18.8107C49.0378 18.8107 50.143 19.4142 50.9468 20.1183L52.253 18.8107C51.1478 17.8047 49.7411 17 47.7317 17C44.1147 17 41 20.0178 41 23.6391C41 27.2604 44.1147 30.2781 47.7317 30.2781C49.7411 30.2781 51.1478 29.6746 52.3534 28.3669C53.5591 27.1598 53.961 25.4497 53.961 24.142C53.961 23.7396 53.961 23.3373 53.8605 23.0355H47.6312ZM93.2459 24.4438C92.844 23.4379 91.8392 21.7278 89.6288 21.7278C87.4184 21.7278 85.6099 23.4379 85.6099 26.0533C85.6099 28.4675 87.4184 30.3787 89.8298 30.3787C91.7388 30.3787 92.9444 29.1716 93.3463 28.4675L91.9397 27.4615C91.4374 28.1657 90.8345 28.6686 89.8298 28.6686C88.8251 28.6686 88.2222 28.2663 87.7199 27.3609L93.4468 24.9467L93.2459 24.4438ZM87.4184 25.8521C87.4184 24.2426 88.7246 23.3373 89.6288 23.3373C90.3322 23.3373 91.0355 23.7396 91.2364 24.2426L87.4184 25.8521ZM82.6962 29.9763H84.6052V17.4024H82.6962V29.9763ZM79.682 22.6331C79.1797 22.1302 78.3759 21.6272 77.3712 21.6272C75.2612 21.6272 73.2518 23.5385 73.2518 25.9527C73.2518 28.3669 75.1608 30.1775 77.3712 30.1775C78.3759 30.1775 79.1797 29.6746 79.5816 29.1716H79.682V29.7751C79.682 31.3846 78.7778 32.2899 77.3712 32.2899C76.266 32.2899 75.4622 31.4852 75.2612 30.7811L73.6537 31.4852C74.156 32.5917 75.3617 34 77.4716 34C79.682 34 81.4906 32.6923 81.4906 29.574V21.929H79.682V22.6331ZM77.4716 28.568C76.1655 28.568 75.0603 27.4615 75.0603 25.9527C75.0603 24.4438 76.1655 23.3373 77.4716 23.3373C78.7778 23.3373 79.7825 24.4438 79.7825 25.9527C79.7825 27.4615 78.7778 28.568 77.4716 28.568ZM101.987 17.4024H97.4657V29.9763H99.3747V25.2485H101.987C104.097 25.2485 106.106 23.7396 106.106 21.3254C106.106 18.9112 104.097 17.4024 101.987 17.4024ZM102.087 23.4379H99.3747V19.1124H102.087C103.494 19.1124 104.298 20.3195 104.298 21.2249C104.197 22.3314 103.394 23.4379 102.087 23.4379ZM113.642 21.6272C112.235 21.6272 110.829 22.2308 110.326 23.5385L112.034 24.2426C112.436 23.5385 113.039 23.3373 113.742 23.3373C114.747 23.3373 115.651 23.9408 115.752 24.9467V25.0473C115.45 24.8462 114.647 24.5444 113.843 24.5444C112.034 24.5444 110.226 25.5503 110.226 27.3609C110.226 29.071 111.733 30.1775 113.34 30.1775C114.647 30.1775 115.249 29.574 115.752 28.9704H115.852V29.9763H117.661V25.1479C117.46 22.9349 115.752 21.6272 113.642 21.6272ZM113.441 28.568C112.838 28.568 111.934 28.2663 111.934 27.4615C111.934 26.4556 113.039 26.1538 113.943 26.1538C114.747 26.1538 115.149 26.355 115.651 26.5562C115.45 27.7633 114.446 28.568 113.441 28.568ZM123.991 21.929L121.881 27.3609H121.78L119.57 21.929H117.56L120.876 29.574L118.967 33.7988H120.876L126 21.929H123.991ZM107.111 29.9763H109.02V17.4024H107.111V29.9763Z" fill="white"/>
<path d="M10.4 5C10.1 5.3 10 5.8 10 6.4V28.5C10 29.1 10.2 29.6 10.5 29.9L10.6 30L23 17.6V17.4L10.4 5Z" fill="url(#paint0_linear_508_2823)"/>
<path d="M27.0394 23L23 18.6588V18.3412L27.0394 14L27.1379 14.1059L31.9655 17.0706C33.3448 17.9176 33.3448 19.2941 31.9655 20.1412L27.0394 23Z" fill="url(#paint1_linear_508_2823)"/>
<path d="M27 22.2363L22.7246 18L10 30.6081C10.509 31.1124 11.2216 31.1124 12.1377 30.709L27 22.2363Z" fill="url(#paint2_linear_508_2823)"/>
<path d="M27 13.7439L12.1377 5.33311C11.2216 4.82644 10.509 4.92777 10 5.43445L22.7246 18L27 13.7439Z" fill="url(#paint3_linear_508_2823)"/>
<path opacity="0.2" d="M27 22L12.1506 30.4453C11.3313 30.9603 10.6145 30.8573 10.1024 30.4453L10 30.5483L10.1024 30.6513C10.6145 31.0633 11.3313 31.1663 12.1506 30.6513L27 22Z" fill="#1E1E1E"/>
<path opacity="0.12" d="M10.4 31.9032C10.1 31.6129 10 31.129 10 30.5484V30.6452C10 31.2258 10.2 31.7097 10.5 32V31.9032H10.4ZM32 21.2581L27 23.9677L27.1 24.0645L32 21.3548C32.7 20.9677 33 20.4839 33 20C33 20.4839 32.6 20.871 32 21.2581Z" fill="#1E1E1E"/>
<path opacity="0.25" d="M12.5 7.45799L32 18.6851C32.6 19.0897 33 19.4943 33 20C33 19.4943 32.7 18.9885 32 18.584L12.5 7.35685C11.1 6.54769 10 7.15456 10 8.77288V8.87403C10 7.35685 11.1 6.64883 12.5 7.45799Z" fill="white"/>
<path d="M46.3 12.129C45.7 12.7097 45 13 44.1 13C43.2 13 42.5 12.7097 41.9 12.129C41.3 11.5484 41 10.871 41 10C41 9.12903 41.3 8.45161 41.9 7.87097C42.5 7.29032 43.2 7 44.1 7C45 7 45.7 7.29032 46.3 7.87097C46.9 8.45161 47.2 9.12903 47.2 10C47.2 10.871 46.9 11.5484 46.3 12.129ZM42.5 11.6452C42.9 12.0323 43.5 12.3226 44.1 12.3226C44.7 12.3226 45.3 12.129 45.7 11.6452C46.1 11.2581 46.4 10.6774 46.4 10C46.4 9.32258 46.2 8.74194 45.7 8.35484C45.3 7.96774 44.7 7.67742 44.1 7.67742C43.5 7.67742 42.9 7.87097 42.5 8.35484C42.1 8.74194 41.8 9.32258 41.8 10C41.8 10.6774 42 11.2581 42.5 11.6452ZM48.3 12.9032V7.09677H49.2L52.1 11.6452V7.09677H52.9V12.9032H52.1L49.1 8.16129V12.9032H48.3ZM56.3 12.9032H55.5V7.77419H53.8V7.09677H57.9V7.77419H56.2V12.9032H56.3ZM59 12.9032V7.09677H60.8C61.7 7.09677 62.5 7.3871 63 7.87097C63.6 8.45161 63.8 9.12903 63.8 10C63.8 10.871 63.5 11.5484 63 12.129C62.4 12.7097 61.7 12.9032 60.8 12.9032H59ZM59.7 12.2258H60.8C61.5 12.2258 62 12.0323 62.4 11.6452C62.8 11.2581 63 10.6774 63 10C63 9.32258 62.8 8.74194 62.4 8.35484C62 7.96774 61.4 7.77419 60.8 7.77419H59.7V12.2258ZM68.4 7.77419H65.7V9.6129H68.2V10.2903H65.7V12.129H68.4V12.9032H64.9V7.09677H68.4V7.77419ZM74.1 7.09677L71.9 9.6129L74.3 12.9032H73.4L71.4 10.1935L70.5 11.2581V12.9032H69.7V7.09677H70.5V10.0968L73.1 7.09677H74.1ZM77 12.9032V7.09677H77.8V9.6129H80.8V7.09677H81.6V12.9032H80.8V10.2903H77.8V12.9032H77ZM86.5 7.77419H83.8V9.6129H86.3V10.2903H83.8V12.129H86.5V12.9032H83V7.09677H86.5V7.77419ZM89.7 12.9032H88.9V7.77419H87.2V7.09677H91.3V7.77419H89.6V12.9032H89.7ZM99.2 12.129C98.6 12.7097 97.9 13 97 13C96.1 13 95.4 12.7097 94.8 12.129C94.2 11.5484 93.9 10.871 93.9 10C93.9 9.12903 94.2 8.45161 94.8 7.87097C95.4 7.29032 96.1 7 97 7C97.9 7 98.6 7.29032 99.2 7.87097C99.8 8.45161 100.1 9.12903 100.1 10C100.1 10.871 99.8 11.5484 99.2 12.129ZM95.4 11.6452C95.8 12.0323 96.4 12.3226 97 12.3226C97.6 12.3226 98.2 12.129 98.6 11.6452C99 11.2581 99.3 10.6774 99.3 10C99.3 9.32258 99.1 8.74194 98.6 8.35484C98.2 7.96774 97.6 7.67742 97 7.67742C96.4 7.67742 95.8 7.87097 95.4 8.35484C95 8.74194 94.7 9.32258 94.7 10C94.7 10.6774 94.9 11.2581 95.4 11.6452ZM101.9 12.9032H101.1V7.09677H103.1C103.6 7.09677 104 7.29032 104.4 7.58065C104.8 7.87097 105 8.35484 105 8.83871C105 9.32258 104.8 9.70968 104.4 10.0968C104 10.3871 103.6 10.5806 103.1 10.5806H101.8V12.9032H101.9ZM101.9 9.80645H103.2C103.5 9.80645 103.8 9.70968 104 9.51613C104.2 9.32258 104.3 9.03226 104.3 8.83871C104.3 8.64516 104.2 8.35484 104 8.16129C103.8 7.96774 103.5 7.87097 103.2 7.87097H101.9V9.80645Z" fill="white" stroke="white" stroke-width="0.2" stroke-miterlimit="10"/>
<defs>
<linearGradient id="paint0_linear_508_2823" x1="21.8" y1="6.21" x2="5.017" y2="22.992" gradientUnits="userSpaceOnUse">
<stop stop-color="#00A0FF"/>
<stop offset="0.007" stop-color="#00A1FF"/>
<stop offset="0.26" stop-color="#00BEFF"/>
<stop offset="0.512" stop-color="#00D2FF"/>
<stop offset="0.76" stop-color="#00DFFF"/>
<stop offset="1" stop-color="#00E3FF"/>
</linearGradient>
<linearGradient id="paint1_linear_508_2823" x1="33.7724" y1="18.4481" x2="9.93301" y2="18.4481" gradientUnits="userSpaceOnUse">
<stop stop-color="#FFE000"/>
<stop offset="0.409" stop-color="#FFBD00"/>
<stop offset="0.775" stop-color="#FFA500"/>
<stop offset="1" stop-color="#FF9C00"/>
</linearGradient>
<linearGradient id="paint2_linear_508_2823" x1="24.6862" y1="20.3159" x2="1.73234" y2="43.4817" gradientUnits="userSpaceOnUse">
<stop stop-color="#FF3A44"/>
<stop offset="1" stop-color="#C31162"/>
</linearGradient>
<linearGradient id="paint3_linear_508_2823" x1="6.84126" y1="-2.08867" x2="17.1398" y2="8.2568" gradientUnits="userSpaceOnUse">
<stop stop-color="#32A071"/>
<stop offset="0.069" stop-color="#2DA771"/>
<stop offset="0.476" stop-color="#15CF74"/>
<stop offset="0.801" stop-color="#06E775"/>
<stop offset="1" stop-color="#00F076"/>
</linearGradient>
</defs>
</svg>
