<svg width="24" height="25" viewBox="0 0 24 25" fill="none" xmlns="http://www.w3.org/2000/svg">
<path d="M13.61 12.2867C13.604 12.6035 13.504 12.9114 13.3228 13.1713C13.1416 13.4312 12.8873 13.6315 12.5921 13.7467C12.297 13.8619 11.9743 13.8869 11.6649 13.8185C11.3555 13.7501 11.0734 13.5914 10.8544 13.3625C10.6353 13.1336 10.4891 12.8448 10.4344 12.5328C10.3796 12.2207 10.4187 11.8994 10.5468 11.6096C10.6749 11.3198 10.8861 11.0745 11.1537 10.9049C11.4213 10.7352 11.7332 10.6489 12.05 10.6567C12.4709 10.6723 12.8692 10.8512 13.1604 11.1555C13.4516 11.4598 13.6129 11.8656 13.61 12.2867Z" fill="#FAFAFA"/>
<path d="M14.763 7.27539H9.33803C8.80123 7.27539 8.28642 7.48863 7.90684 7.86821C7.52727 8.24778 7.31403 8.76259 7.31403 9.29939V14.8464C7.31403 15.1122 7.36638 15.3754 7.46809 15.6209C7.56981 15.8665 7.7189 16.0896 7.90684 16.2776C8.09479 16.4655 8.31791 16.6146 8.56347 16.7163C8.80904 16.818 9.07223 16.8704 9.33803 16.8704H14.763C15.0288 16.8704 15.292 16.818 15.5376 16.7163C15.7831 16.6146 16.0063 16.4655 16.1942 16.2776C16.3822 16.0896 16.5312 15.8665 16.633 15.6209C16.7347 15.3754 16.787 15.1122 16.787 14.8464V9.30939C16.7881 9.04283 16.7365 8.77868 16.6353 8.53208C16.5341 8.28548 16.3852 8.06128 16.1972 7.87233C16.0091 7.68337 15.7857 7.53338 15.5396 7.43095C15.2935 7.32851 15.0296 7.27565 14.763 7.27539ZM12.05 14.9984C11.513 15.0105 10.9845 14.8623 10.5321 14.5728C10.0796 14.2833 9.72368 13.8655 9.50971 13.3728C9.29575 12.88 9.23344 12.3347 9.33074 11.8065C9.42805 11.2782 9.68055 10.7909 10.056 10.4067C10.4315 10.0226 10.9129 9.759 11.4389 9.64966C11.9648 9.54033 12.5114 9.59017 13.0088 9.79284C13.5063 9.99551 13.9321 10.3418 14.2319 10.7875C14.5317 11.2333 14.6919 11.7582 14.692 12.2954C14.6964 12.6464 14.6315 12.9949 14.501 13.3208C14.3705 13.6468 14.177 13.9438 13.9316 14.1948C13.6862 14.4459 13.3937 14.6461 13.0708 14.784C12.748 14.9219 12.4011 14.9947 12.05 14.9984ZM14.986 9.59339C14.92 9.5934 14.8547 9.58025 14.7939 9.5547C14.733 9.52915 14.6779 9.49172 14.6317 9.4446C14.5855 9.39748 14.5492 9.34161 14.5249 9.28027C14.5005 9.21894 14.4887 9.15336 14.49 9.08739C14.49 8.95319 14.5433 8.82449 14.6382 8.7296C14.7331 8.6347 14.8618 8.58139 14.996 8.58139C15.1302 8.58139 15.2589 8.6347 15.3538 8.7296C15.4487 8.82449 15.502 8.95319 15.502 9.08739C15.504 9.15883 15.4905 9.22985 15.4625 9.2956C15.4345 9.36134 15.3926 9.42026 15.3397 9.46831C15.2868 9.51636 15.2242 9.55242 15.1561 9.57401C15.0879 9.59559 15.0159 9.60221 14.945 9.59339H14.986Z" fill="#FAFAFA"/>
<path d="M12.05 2.04309C9.39784 2.02983 6.84903 3.07068 4.96429 4.93667C3.07955 6.80266 2.01326 9.34093 2 11.9931C1.98674 14.6453 3.02759 17.1941 4.89358 19.0788C6.75957 20.9635 9.29784 22.0298 11.95 22.0431C13.2632 22.0497 14.5649 21.7975 15.7806 21.301C16.9964 20.8045 18.1025 20.0735 19.0357 19.1495C19.9689 18.2256 20.7111 17.1269 21.2197 15.9161C21.7283 14.7054 21.9934 13.4063 22 12.0931C22.0066 10.7799 21.7544 9.47822 21.2579 8.26245C20.7615 7.04669 20.0304 5.94061 19.1064 5.00738C18.1825 4.07415 17.0838 3.33205 15.873 2.82343C14.6623 2.31482 13.3632 2.04966 12.05 2.04309ZM18.123 14.7451C18.1258 15.1937 18.0395 15.6385 17.8691 16.0535C17.6988 16.4685 17.4477 16.8456 17.1305 17.1629C16.8133 17.4802 16.4363 17.7313 16.0213 17.9018C15.6063 18.0723 15.1616 18.1588 14.713 18.1561H9.389C8.94037 18.1589 8.49565 18.0726 8.08061 17.9022C7.66558 17.7318 7.28849 17.4808 6.9712 17.1636C6.65392 16.8464 6.40275 16.4694 6.23226 16.0544C6.06177 15.6394 5.97535 15.1947 5.978 14.7461V9.42109C5.97522 8.97246 6.06151 8.52774 6.23188 8.1127C6.40225 7.69767 6.6533 7.32058 6.97049 7.00329C7.28769 6.68601 7.6647 6.43484 8.07969 6.26435C8.49467 6.09386 8.93937 6.00744 9.388 6.01009H14.713C15.1616 6.00744 15.6062 6.09383 16.0211 6.26426C16.436 6.43469 16.813 6.68577 17.1302 7.00294C17.4473 7.32012 17.6984 7.69709 17.8688 8.11201C18.0393 8.52693 18.1257 8.97154 18.123 9.42009V14.7451Z" fill="#FAFAFA"/>
</svg>
