<svg width="139" height="18" viewBox="0 0 139 18" fill="none" xmlns="http://www.w3.org/2000/svg">
<path d="M138.66 9L130 0.339746L121.34 9L130 17.6603L138.66 9ZM0 10.5H0.984848V7.5H0V10.5ZM2.95455 10.5H4.92424V7.5H2.95455V10.5ZM6.89394 10.5H8.86364V7.5H6.89394V10.5ZM10.8333 10.5H12.803V7.5H10.8333V10.5ZM14.7727 10.5H16.7424V7.5H14.7727V10.5ZM18.7121 10.5H20.6818V7.5H18.7121V10.5ZM22.6515 10.5H24.6212V7.5H22.6515V10.5ZM26.5909 10.5H28.5606V7.5H26.5909V10.5ZM30.5303 10.5H32.5V7.5H30.5303V10.5ZM34.4697 10.5H36.4394V7.5H34.4697V10.5ZM38.4091 10.5H40.3788V7.5H38.4091V10.5ZM42.3485 10.5H44.3182V7.5H42.3485V10.5ZM46.2879 10.5H48.2576V7.5H46.2879V10.5ZM50.2273 10.5H52.1969V7.5H50.2273V10.5ZM54.1666 10.5H56.1363V7.5H54.1666V10.5ZM58.106 10.5H60.0757V7.5H58.106V10.5ZM62.0454 10.5H64.0151V7.5H62.0454V10.5ZM65.9848 10.5H67.9545V7.5H65.9848V10.5ZM69.9242 10.5H71.8939V7.5H69.9242V10.5ZM73.8636 10.5H75.8333V7.5H73.8636V10.5ZM77.803 10.5H79.7727V7.5H77.803V10.5ZM81.7424 10.5H83.7121V7.5H81.7424V10.5ZM85.6818 10.5H87.6515V7.5H85.6818V10.5ZM89.6212 10.5H91.5909V7.5H89.6212V10.5ZM93.5606 10.5H95.5303V7.5H93.5606V10.5ZM97.5 10.5H99.4697V7.5H97.5V10.5ZM101.439 10.5H103.409V7.5H101.439V10.5ZM105.379 10.5H107.348V7.5H105.379V10.5ZM109.318 10.5H111.288V7.5H109.318V10.5ZM113.258 10.5H115.227V7.5H113.258V10.5ZM117.197 10.5H119.167V7.5H117.197V10.5ZM121.136 10.5H123.106V7.5H121.136V10.5ZM125.076 10.5H127.045V7.5H125.076V10.5ZM129.015 10.5H130V7.5H129.015V10.5Z" fill="#B1060D"/>
</svg>
