<svg width="24" height="25" viewBox="0 0 24 25" fill="none" xmlns="http://www.w3.org/2000/svg">
<g clip-path="url(#clip0_519_494)">
<path d="M12 0.523438C5.63758 0.523438 0.47998 5.68104 0.47998 12.0434C0.47998 18.4058 5.63758 23.5634 12 23.5634C18.3624 23.5634 23.52 18.4058 23.52 12.0434C23.52 5.68104 18.3624 0.523438 12 0.523438ZM9.17998 16.8182H6.84718V9.31104H9.17998V16.8182ZM7.99918 8.38944C7.26238 8.38944 6.78598 7.86744 6.78598 7.22184C6.78598 6.56304 7.27678 6.05664 8.02918 6.05664C8.78158 6.05664 9.24238 6.56304 9.25678 7.22184C9.25678 7.86744 8.78158 8.38944 7.99918 8.38944ZM17.7 16.8182H15.3672V12.6578C15.3672 11.6894 15.0288 11.0318 14.1852 11.0318C13.5408 11.0318 13.158 11.477 12.9888 11.9054C12.9264 12.0578 12.9108 12.2738 12.9108 12.4886V16.817H10.5768V11.705C10.5768 10.7678 10.5468 9.98424 10.5156 9.30984H12.5424L12.6492 10.3526H12.696C13.0032 9.86304 13.7556 9.14064 15.0144 9.14064C16.5492 9.14064 17.7 10.169 17.7 12.3794V16.8182Z" fill="#FAFAFA"/>
</g>
<defs>
<clipPath id="clip0_519_494">
<rect width="24" height="24" fill="white" transform="translate(0 0.0429688)"/>
</clipPath>
</defs>
</svg>
