<svg width="48" height="48" viewBox="0 0 48 48" fill="none" xmlns="http://www.w3.org/2000/svg">
<circle cx="24" cy="24" r="24" fill="#D82022"/>
<path d="M15.5098 14.2941C15.4526 14.2941 15.3977 14.3168 15.3573 14.3573C15.3168 14.3977 15.2941 14.4526 15.2941 14.5098V33.4902C15.2941 33.6093 15.3907 33.7059 15.5098 33.7059H22.8431C23.0147 33.7059 23.1793 33.7741 23.3007 33.8954C23.422 34.0167 23.4902 34.1813 23.4902 34.3529C23.4902 34.5245 23.422 34.6891 23.3007 34.8105C23.1793 34.9318 23.0147 35 22.8431 35H15.5098C15.1094 35 14.7254 34.8409 14.4422 34.5578C14.1591 34.2746 14 33.8906 14 33.4902V14.5098C14 13.6764 14.6764 13 15.5098 13H27.8557L32.549 17.6933V22.2745C32.549 22.4461 32.4808 22.6107 32.3595 22.732C32.2382 22.8534 32.0736 22.9216 31.902 22.9216C31.7303 22.9216 31.5658 22.8534 31.4444 22.732C31.3231 22.6107 31.2549 22.4461 31.2549 22.2745V18.6078H26.9412V14.2941H15.5098ZM28.2353 15.2086V17.3137H30.3404L28.2353 15.2086Z" fill="#FAFAFA"/>
<path d="M19.5587 20.6709C19.4043 20.6709 19.2562 20.7322 19.1471 20.8414C19.0379 20.9506 18.9766 21.0986 18.9766 21.253C18.9766 21.4074 19.0379 21.5554 19.1471 21.6646C19.2562 21.7738 19.4043 21.8351 19.5587 21.8351H26.9318C27.0862 21.8351 27.2342 21.7738 27.3434 21.6646C27.4525 21.5554 27.5139 21.4074 27.5139 21.253C27.5139 21.0986 27.4525 20.9506 27.3434 20.8414C27.2342 20.7322 27.0862 20.6709 26.9318 20.6709H19.5587ZM19.5587 24.9396C19.4043 24.9396 19.2562 25.0009 19.1471 25.11C19.0379 25.2192 18.9766 25.3673 18.9766 25.5216C18.9766 25.676 19.0379 25.8241 19.1471 25.9332C19.2562 26.0424 19.4043 26.1037 19.5587 26.1037H23.0512C23.2056 26.1037 23.3536 26.0424 23.4628 25.9332C23.572 25.8241 23.6333 25.676 23.6333 25.5216C23.6333 25.3673 23.572 25.2192 23.4628 25.11C23.3536 25.0009 23.2056 24.9396 23.0512 24.9396H19.5587ZM28.096 29.2082V30.1784H29.0661L31.9766 27.2679L31.0064 26.2978L28.096 29.2082Z" fill="#FAFAFA"/>
<path d="M33.9766 28.4248C33.9766 27.2313 33.5025 26.0867 32.6585 25.2428C31.8146 24.3989 30.67 23.9248 29.4766 23.9248C28.2831 23.9248 27.1385 24.3989 26.2946 25.2428C25.4507 26.0867 24.9766 27.2313 24.9766 28.4248C24.9766 29.6183 25.4507 30.7629 26.2946 31.6068C27.1385 32.4507 28.2831 32.9248 29.4766 32.9248C30.67 32.9248 31.8146 32.4507 32.6585 31.6068C33.5025 30.7629 33.9766 29.6183 33.9766 28.4248ZM32.8516 28.4248C32.8516 29.3199 32.496 30.1784 31.863 30.8113C31.2301 31.4442 30.3717 31.7998 29.4766 31.7998C28.5815 31.7998 27.723 31.4442 27.0901 30.8113C26.4571 30.1784 26.1016 29.3199 26.1016 28.4248C26.1016 27.5297 26.4571 26.6713 27.0901 26.0383C27.723 25.4054 28.5815 25.0498 29.4766 25.0498C30.3717 25.0498 31.2301 25.4054 31.863 26.0383C32.496 26.6713 32.8516 27.5297 32.8516 28.4248Z" fill="#FAFAFA"/>
</svg>
