<svg width="128" height="129" viewBox="0 0 128 129" fill="none" xmlns="http://www.w3.org/2000/svg">
<g clip-path="url(#clip0_451_2606)">
<path d="M126.196 79.087C134.505 44.7337 113.392 10.149 79.0387 1.83984C44.6853 -6.46928 10.1006 14.6437 1.79148 48.997C-6.51764 83.3504 14.5954 117.935 48.9487 126.244C83.302 134.553 117.887 113.44 126.196 79.087Z" fill="#1D431E" fill-opacity="0.2"/>
<path d="M74.4742 117.606C103.837 112.77 123.72 85.0464 118.884 55.6835C114.049 26.3207 86.3251 6.43757 56.9623 11.2733C27.5994 16.1091 7.71631 43.8326 12.5521 73.1954C17.3879 102.558 45.1113 122.441 74.4742 117.606Z" fill="#1D431E" fill-opacity="0.2"/>
<path d="M111.943 84.4687C123.521 57.6932 111.201 26.6017 84.4252 15.0239C57.6497 3.44615 26.5582 15.7664 14.9804 42.542C3.40265 69.3175 15.7229 100.409 42.4985 111.987C69.2741 123.565 100.366 111.244 111.943 84.4687Z" fill="#1D431E"/>
<path d="M109.282 81.2445C119.075 55.9384 106.499 27.4849 81.1933 17.6919C55.8872 7.89884 27.4337 20.4747 17.6407 45.7808C7.84769 71.0869 20.4235 99.5404 45.7296 109.333C71.0357 119.126 99.4892 106.551 109.282 81.2445Z" fill="white"/>
<path d="M62.9829 92.005C47.1758 92.005 34.3124 79.1416 34.3124 63.3345C34.3124 47.5275 47.1758 34.6641 62.9829 34.6641C78.7899 34.6641 91.6533 47.5275 91.6533 63.3345C91.6533 79.1535 78.7899 92.005 62.9829 92.005ZM62.9829 37.6795C48.8391 37.6795 37.3159 49.1908 37.3159 63.3465C37.3159 77.4903 48.8271 89.0135 62.9829 89.0135C77.1266 89.0135 88.6499 77.5022 88.6499 63.3465C88.6379 49.1908 77.1266 37.6795 62.9829 37.6795Z" fill="#1D431E"/>
<path d="M62.9709 80.8526C58.4717 80.8526 54.1998 79.1535 50.9212 76.0423C47.5228 72.8235 45.5963 68.4679 45.4647 63.7892C45.345 59.1105 47.0442 54.6711 50.263 51.2727C53.4819 47.8744 57.8375 45.9479 62.5162 45.8163C67.1949 45.6607 71.6343 47.3958 75.0326 50.6146C78.4309 53.8335 80.3575 58.1891 80.4891 62.8678C80.6087 67.5465 78.9096 71.9858 75.6788 75.3842C72.4599 78.7825 68.1043 80.709 63.4376 80.8407C63.282 80.8526 63.1265 80.8526 62.9709 80.8526ZM62.9948 48.8317C62.8632 48.8317 62.7316 48.8317 62.5999 48.8317C58.723 48.9394 55.1212 50.5428 52.4528 53.3429C49.7844 56.1549 48.3724 59.8284 48.4681 63.7054C48.5758 67.5824 50.1793 71.1841 52.9793 73.8525C55.7913 76.521 59.4649 77.921 63.3418 77.8372C71.3351 77.6218 77.6771 70.9568 77.4617 62.9515C77.354 59.0746 75.7506 55.4728 72.9505 52.8044C70.2462 50.2437 66.7162 48.8317 62.9948 48.8317Z" fill="#1D431E"/>
<path d="M62.9829 72.7515C57.9093 72.7515 53.7092 68.6831 53.5776 63.5856C53.446 58.3923 57.5503 54.0606 62.7435 53.929C65.2564 53.8453 67.6496 54.7786 69.4684 56.5137C71.2872 58.2487 72.3283 60.5821 72.4001 63.095C72.5317 68.2882 68.4274 72.6199 63.2341 72.7515C63.1384 72.7515 63.0666 72.7515 62.9829 72.7515ZM62.9829 56.9325C62.923 56.9325 62.8632 56.9325 62.8153 56.9325C59.2854 57.0282 56.4853 59.9718 56.5811 63.5018C56.6768 66.9719 59.5247 69.7361 62.9829 69.7361C63.0427 69.7361 63.0906 69.7361 63.1504 69.7361C64.8615 69.6882 66.453 68.9822 67.6257 67.7377C68.7983 66.4933 69.4325 64.8659 69.3847 63.1548C69.3368 61.4436 68.6308 59.8522 67.3863 58.6795C66.1897 57.5547 64.6342 56.9325 62.9829 56.9325Z" fill="#1D431E"/>
<path d="M61.9538 60.583L41.0851 40.1452V40.0494L41.1569 37.1178L36.9688 32.9297L36.8492 38.0751H36.8133L31.7397 38.3144L35.7722 42.3349L38.9432 42.1913L39.2783 42.1794L60.0392 62.4976L58.2683 64.2686L66.8718 67.2601L63.7367 58.8001L61.9538 60.583Z" fill="#1D431E"/>
</g>
<defs>
<clipPath id="clip0_451_2606">
<rect width="128" height="128" fill="white" transform="translate(0 0.0429688)"/>
</clipPath>
</defs>
</svg>
