<svg width="24" height="24" viewBox="0 0 24 24" fill="none" xmlns="http://www.w3.org/2000/svg">
<path d="M9 2.33333C9 2.14924 9.44772 2 10 2H14C14.5523 2 15 2.14924 15 2.33333V2.66667C15 2.85076 14.5523 3 14 3H10C9.44772 3 9 2.85076 9 2.66667V2.33333Z" fill="#969696"/>
<path d="M16.5 1.75H7.5C6.5335 1.75 5.75 2.5335 5.75 3.5V20.5C5.75 21.4665 6.5335 22.25 7.5 22.25H16.5C17.4665 22.25 18.25 21.4665 18.25 20.5V3.5C18.25 2.5335 17.4665 1.75 16.5 1.75Z" stroke="#969696" stroke-width="1.5"/>
<path d="M9 20.5H15" stroke="#969696" stroke-width="1.5" stroke-linecap="round"/>
</svg>
