<svg width="48" height="48" viewBox="0 0 48 48" fill="none" xmlns="http://www.w3.org/2000/svg">
<circle cx="24" cy="24" r="24" fill="#D82022"/>
<g clip-path="url(#clip0_513_3375)">
<path d="M34.2019 17.8079L24.2639 12.0703C24.1016 11.9766 23.9016 11.9766 23.7393 12.0703L13.8014 17.8079C13.6391 17.9016 13.5391 18.0748 13.5391 18.2623V29.7376C13.5391 29.9251 13.6391 30.0983 13.8014 30.192L23.7394 35.9297C23.8205 35.9765 23.9111 36 24.0017 36C24.0923 36 24.1828 35.9765 24.264 35.9297L34.202 30.192C34.3643 30.0983 34.4643 29.9251 34.4643 29.7376V18.2623C34.4642 18.0749 34.3642 17.9016 34.2019 17.8079ZM33.415 28.6614L33.0762 28.4658C32.8253 28.3209 32.5044 28.4068 32.3595 28.6578C32.2146 28.9087 32.3006 29.2296 32.5515 29.3745L33.0356 29.6539L24.5262 34.5668V24.6705C24.533 24.6708 24.5396 24.6718 24.5463 24.6718C24.7276 24.6718 24.904 24.5777 25.0012 24.4094C25.0757 24.2804 25.0887 24.1329 25.0501 24.0003L33.415 19.1708V28.6614ZM15.6438 28.6578C15.499 28.4069 15.1783 28.3209 14.9272 28.4658L14.5883 28.6614V19.1708L22.9532 24.0003C22.9146 24.1329 22.9276 24.2804 23.0021 24.4094C23.0993 24.5777 23.2756 24.6718 23.457 24.6718C23.4636 24.6718 23.4703 24.6707 23.4771 24.6705V34.5667L14.9677 29.6539L15.4518 29.3744C15.7027 29.2296 15.7887 28.9087 15.6438 28.6578ZM24.0017 14.1815C24.2914 14.1815 24.5263 13.9466 24.5263 13.6569V13.4332L32.8903 18.2622L24.5156 23.0973C24.4668 22.8581 24.2552 22.6782 24.0017 22.6782C23.7481 22.6782 23.5365 22.8581 23.4877 23.0974L15.113 18.2622L23.4771 13.4332V13.6569C23.4771 13.9466 23.712 14.1815 24.0017 14.1815Z" fill="#FAFAFA"/>
<path d="M27.9499 26.7173L28.8858 27.2576C28.9684 27.3053 29.0586 27.328 29.1475 27.328C29.3289 27.328 29.5052 27.2339 29.6024 27.0656C29.7473 26.8147 29.6613 26.4939 29.4104 26.349L28.4745 25.8086C28.2235 25.6638 27.9028 25.7497 27.7579 26.0007C27.613 26.2516 27.699 26.5724 27.9499 26.7173Z" fill="#FAFAFA"/>
<path d="M25.6491 25.3892L26.585 25.9295C26.6677 25.9772 26.7578 25.9999 26.8468 25.9999C27.0281 25.9999 27.2045 25.9058 27.3017 25.7375C27.4466 25.4866 27.3606 25.1657 27.1096 25.0209L26.1737 24.4806C25.9228 24.3356 25.602 24.4217 25.4571 24.6726C25.3122 24.9235 25.3982 25.2444 25.6491 25.3892Z" fill="#FAFAFA"/>
<path d="M30.2507 28.0464L31.1866 28.5868C31.2692 28.6344 31.3594 28.6571 31.4484 28.6571C31.6297 28.6571 31.8061 28.563 31.9032 28.3948C32.0481 28.1438 31.9621 27.823 31.7112 27.6781L30.7753 27.1378C30.5243 26.9929 30.2035 27.0789 30.0587 27.3298C29.9138 27.5807 29.9998 27.9016 30.2507 28.0464Z" fill="#FAFAFA"/>
<path d="M21.158 25.9999C21.247 25.9999 21.3373 25.9772 21.4198 25.9295L22.3557 25.3892C22.6067 25.2443 22.6926 24.9235 22.5478 24.6725C22.4029 24.4216 22.082 24.3357 21.8311 24.4805L20.8952 25.0209C20.6443 25.1657 20.5583 25.4866 20.7032 25.7375C20.8004 25.9059 20.9767 25.9999 21.158 25.9999Z" fill="#FAFAFA"/>
<path d="M16.5565 28.657C16.6455 28.657 16.7356 28.6344 16.8183 28.5867L17.7542 28.0464C18.0051 27.9015 18.0911 27.5807 17.9462 27.3297C17.8014 27.0789 17.4806 26.9929 17.2296 27.1377L16.2936 27.678C16.0427 27.8229 15.9567 28.1437 16.1016 28.3947C16.1988 28.563 16.3751 28.657 16.5565 28.657Z" fill="#FAFAFA"/>
<path d="M18.8573 27.328C18.9462 27.328 19.0365 27.3053 19.119 27.2576L20.0549 26.7173C20.3058 26.5724 20.3918 26.2516 20.2469 26.0007C20.1021 25.7497 19.7812 25.6638 19.5303 25.8086L18.5944 26.349C18.3435 26.4939 18.2575 26.8147 18.4024 27.0656C18.4996 27.2339 18.6759 27.328 18.8573 27.328Z" fill="#FAFAFA"/>
<path d="M23.4766 16.3133C23.4766 16.603 23.7115 16.8379 24.0012 16.8379C24.2909 16.8379 24.5258 16.603 24.5258 16.3133V15.2326C24.5258 14.9429 24.2909 14.708 24.0012 14.708C23.7115 14.708 23.4766 14.9429 23.4766 15.2326V16.3133Z" fill="#FAFAFA"/>
<path d="M24.0012 17.3652C23.7115 17.3652 23.4766 17.6001 23.4766 17.8898V18.9705C23.4766 19.2603 23.7115 19.4951 24.0012 19.4951C24.2909 19.4951 24.5258 19.2603 24.5258 18.9705V17.8898C24.5258 17.6001 24.2909 17.3652 24.0012 17.3652Z" fill="#FAFAFA"/>
<path d="M24.0012 20.0215C23.7115 20.0215 23.4766 20.2564 23.4766 20.5461V21.6268C23.4766 21.9165 23.7115 22.1514 24.0012 22.1514C24.2909 22.1514 24.5258 21.9165 24.5258 21.6268V20.5461C24.5258 20.2564 24.2909 20.0215 24.0012 20.0215Z" fill="#FAFAFA"/>
</g>
<defs>
<clipPath id="clip0_513_3375">
<rect width="24" height="24" fill="white" transform="translate(12 12)"/>
</clipPath>
</defs>
</svg>
