<svg width="128" height="129" viewBox="0 0 128 129" fill="none" xmlns="http://www.w3.org/2000/svg">
<g clip-path="url(#clip0_451_2582)">
<path d="M126.196 79.087C134.505 44.7337 113.392 10.149 79.0387 1.83984C44.6853 -6.46928 10.1006 14.6437 1.79148 48.997C-6.51764 83.3504 14.5954 117.935 48.9487 126.244C83.302 134.553 117.887 113.44 126.196 79.087Z" fill="#B1060D" fill-opacity="0.05"/>
<path d="M74.4742 117.606C103.837 112.77 123.72 85.0464 118.884 55.6835C114.049 26.3207 86.3251 6.43757 56.9623 11.2733C27.5994 16.1091 7.71631 43.8326 12.5521 73.1954C17.3879 102.558 45.1113 122.441 74.4742 117.606Z" fill="#B1060D" fill-opacity="0.05"/>
<g clip-path="url(#clip1_451_2582)">
<path d="M114.139 78.9441C122.593 51.025 106.813 21.5392 78.8938 13.0856C50.9748 4.63198 21.4889 20.4118 13.0353 48.3309C4.5817 76.25 20.3616 105.736 48.2806 114.189C76.1997 122.643 105.686 106.863 114.139 78.9441Z" fill="#B1060D"/>
<path d="M74.8767 111.442C101.284 105.206 117.637 78.7437 111.402 52.3359C105.166 25.9281 78.7033 9.57534 52.2955 15.811C25.8877 22.0466 9.53492 48.5093 15.7705 74.9171C22.0062 101.325 48.4689 117.678 74.8767 111.442Z" fill="white"/>
<path d="M63.8265 36.1197C73.3155 36.1197 81.0335 43.8377 81.0335 53.3267C81.0335 58.3046 78.8677 63.0312 75.1104 66.3098C72.7531 68.356 71.1496 71.0962 70.4915 74.0997H57.1734C56.5392 71.0843 54.9716 68.3799 52.6622 66.4175C48.3425 62.744 46.1168 57.1559 46.7032 51.484C47.5288 43.5266 53.8947 37.1129 61.8401 36.2393C62.4982 36.1556 63.1683 36.1197 63.8265 36.1197ZM63.8265 33.0684C63.0606 33.0684 62.2948 33.1043 61.517 33.2C52.1955 34.2291 44.657 41.8275 43.6877 51.1609C42.9578 58.1969 45.8416 64.5867 50.6998 68.727C53.1409 70.809 54.4451 73.9322 54.4451 77.139H73.2078C73.2078 73.8604 74.6317 70.7492 77.0967 68.6073C81.3686 64.8978 84.0729 59.4294 84.0729 53.3267C84.0729 42.1386 75.0027 33.0684 63.8265 33.0684Z" fill="#B1060D"/>
<path d="M53.5238 81.8529H74.1172C74.9907 81.8529 75.7087 81.1469 75.7087 80.2614C75.7087 79.3879 75.0027 78.6699 74.1172 78.6699H53.5238C52.6502 78.6699 51.9323 79.3759 51.9323 80.2614C51.9323 81.1469 52.6502 81.8529 53.5238 81.8529Z" fill="#B1060D"/>
<path d="M74.1172 83.3848H53.5238C52.6502 83.3848 51.9323 84.0908 51.9323 84.9762C51.9323 85.8617 52.6383 86.5677 53.5238 86.5677H74.1172C74.9907 86.5677 75.7087 85.8617 75.7087 84.9762C75.7087 84.0908 74.9907 83.3848 74.1172 83.3848Z" fill="#B1060D"/>
<path d="M54.9716 88.1836C56.0725 91.7255 59.6144 94.3221 63.8265 94.3221C68.0385 94.3221 71.5804 91.7255 72.6813 88.1836H54.9716Z" fill="#B1060D"/>
</g>
</g>
<defs>
<clipPath id="clip0_451_2582">
<rect width="128" height="128" fill="white" transform="translate(0 0.0429688)"/>
</clipPath>
<clipPath id="clip1_451_2582">
<rect width="105.648" height="105.648" fill="white" transform="translate(10.7693 10.8125)"/>
</clipPath>
</defs>
</svg>
