<svg width="48" height="48" viewBox="0 0 48 48" fill="none" xmlns="http://www.w3.org/2000/svg">
<circle cx="24" cy="24" r="24" fill="#D82022"/>
<g clip-path="url(#clip0_513_3365)">
<path fill-rule="evenodd" clip-rule="evenodd" d="M19.5472 14.9854C21.3314 14.9854 22.7767 16.4014 22.7767 18.1494C22.7767 19.8975 21.3314 21.3135 19.5472 21.3135C17.763 21.3135 16.3177 19.8975 16.3177 18.1494C16.3177 16.4014 17.763 14.9854 19.5472 14.9854ZM16.525 23.8213C16.3077 23.8213 16.1303 23.6475 16.1303 23.4307C16.1303 23.2139 16.3057 23.04 16.525 23.04H22.5315C22.7488 23.04 22.9263 23.2139 22.9263 23.4307C22.9263 23.6475 22.7508 23.8213 22.5315 23.8213H16.525ZM24.0646 23.8213C23.8473 23.8213 23.6699 23.6475 23.6699 23.4307C23.6699 23.2139 23.8453 23.04 24.0646 23.04H30.5436C30.7609 23.04 30.9383 23.2139 30.9383 23.4307C30.9383 23.6475 30.7629 23.8213 30.5436 23.8213H24.0646ZM13.4071 36.4287C13.2696 36.3662 13.1719 36.2314 13.1719 36.0713V12.9893C13.1719 12.7744 13.3493 12.5986 13.5706 12.5986H17.438H33.3305C33.5498 12.5986 33.7293 12.7725 33.7293 12.9893V34.0303C33.7293 34.0518 33.7273 34.0713 33.7253 34.0908C33.6694 34.8584 33.4143 35.4561 32.9558 35.8838C32.4972 36.3096 31.8533 36.5479 31.018 36.5947C31.0001 36.5967 30.9841 36.5986 30.9662 36.5986H13.736C13.6005 36.5986 13.4789 36.5303 13.4071 36.4287ZM32.9338 34.0205V13.3779H17.438H13.9673V35.8193H30.9642H30.9722C31.6121 35.7842 32.0906 35.6162 32.4075 35.3213C32.7205 35.0303 32.894 34.5947 32.9338 34.0205ZM16.525 30.1904C16.3077 30.1904 16.1303 30.0166 16.1303 29.7998C16.1303 29.585 16.3057 29.4092 16.525 29.4092H30.5795C30.7968 29.4092 30.9742 29.583 30.9742 29.7998C30.9742 30.0146 30.7987 30.1904 30.5795 30.1904H16.525ZM16.5888 27.0068C16.3715 27.0068 16.1941 26.833 16.1941 26.6162C16.1941 26.3994 16.3695 26.2256 16.5888 26.2256H30.5436C30.7609 26.2256 30.9383 26.3994 30.9383 26.6162C30.9383 26.833 30.7629 27.0068 30.5436 27.0068H16.5888ZM24.7165 20.6377C24.4992 20.6377 24.3217 20.4639 24.3217 20.2471C24.3217 20.0322 24.4972 19.8564 24.7165 19.8564H30.5436C30.7609 19.8564 30.9383 20.0303 30.9383 20.2471C30.9383 20.4619 30.7629 20.6377 30.5436 20.6377H24.7165ZM27.2203 33.374C27.003 33.374 26.8256 33.2002 26.8256 32.9834C26.8256 32.7686 27.0011 32.5928 27.2203 32.5928H30.5456C30.7629 32.5928 30.9403 32.7666 30.9403 32.9834C30.9403 33.1982 30.7649 33.374 30.5456 33.374H27.2203ZM27.2203 17.4541C27.003 17.4541 26.8256 17.2803 26.8256 17.0635C26.8256 16.8486 27.0011 16.6729 27.2203 16.6729H30.5456C30.7629 16.6729 30.9403 16.8467 30.9403 17.0635C30.9403 17.2783 30.7649 17.4541 30.5456 17.4541H27.2203ZM18.1099 18.4697C18.07 18.4346 18.0461 18.3838 18.0441 18.3311C18.0421 18.2803 18.058 18.2295 18.0959 18.1865C18.0959 18.1865 18.0959 18.1846 18.0979 18.1846C18.1338 18.1455 18.1856 18.1221 18.2395 18.1201C18.2913 18.1182 18.3451 18.1338 18.387 18.1729L19.0688 18.7783L20.7015 17.1025C20.7393 17.0635 20.7912 17.042 20.845 17.04C20.8988 17.0381 20.9487 17.0557 20.9905 17.0967C21.0304 17.1338 21.0523 17.1846 21.0543 17.2373C21.0563 17.29 21.0384 17.3389 20.9965 17.3818L19.2243 19.1982L19.2203 19.2021C19.1844 19.2373 19.1326 19.2588 19.0827 19.2607C19.0309 19.2627 18.9791 19.2451 18.9372 19.208L18.1099 18.4736V18.4697Z" fill="#FAFAFA"/>
</g>
<defs>
<clipPath id="clip0_513_3365">
<rect width="21" height="25" fill="white" transform="translate(13 12)"/>
</clipPath>
</defs>
</svg>
