<svg width="18" height="14" viewBox="0 0 18 14" fill="none" xmlns="http://www.w3.org/2000/svg">
<path d="M0.75 1.5C0.75 1.30109 0.829018 1.11032 0.96967 0.96967C1.11032 0.829018 1.30109 0.75 1.5 0.75H16.5C16.6989 0.75 16.8897 0.829018 17.0303 0.96967C17.171 1.11032 17.25 1.30109 17.25 1.5C17.25 1.69891 17.171 1.88968 17.0303 2.03033C16.8897 2.17098 16.6989 2.25 16.5 2.25H1.5C1.30109 2.25 1.11032 2.17098 0.96967 2.03033C0.829018 1.88968 0.75 1.69891 0.75 1.5ZM0.75 7C0.75 6.80109 0.829018 6.61032 0.96967 6.46967C1.11032 6.32902 1.30109 6.25 1.5 6.25H16.5C16.6989 6.25 16.8897 6.32902 17.0303 6.46967C17.171 6.61032 17.25 6.80109 17.25 7C17.25 7.19891 17.171 7.38968 17.0303 7.53033C16.8897 7.67098 16.6989 7.75 16.5 7.75H1.5C1.30109 7.75 1.11032 7.67098 0.96967 7.53033C0.829018 7.38968 0.75 7.19891 0.75 7ZM0.75 12.5C0.75 12.3011 0.829018 12.1103 0.96967 11.9697C1.11032 11.829 1.30109 11.75 1.5 11.75H16.5C16.6989 11.75 16.8897 11.829 17.0303 11.9697C17.171 12.1103 17.25 12.3011 17.25 12.5C17.25 12.6989 17.171 12.8897 17.0303 13.0303C16.8897 13.171 16.6989 13.25 16.5 13.25H1.5C1.30109 13.25 1.11032 13.171 0.96967 13.0303C0.829018 12.8897 0.75 12.6989 0.75 12.5Z" fill="#1E1E1E"/>
</svg>
