<svg width="24" height="24" viewBox="0 0 24 24" fill="none" xmlns="http://www.w3.org/2000/svg">
<path fill-rule="evenodd" clip-rule="evenodd" d="M11.9999 3C9.57246 3 7.6046 4.96786 7.6046 7.39535C7.6046 9.82283 9.57246 11.7907 11.9999 11.7907C14.4274 11.7907 16.3953 9.82283 16.3953 7.39535C16.3953 4.96786 14.4274 3 11.9999 3ZM8.86041 7.39535C8.86041 5.66143 10.266 4.25581 11.9999 4.25581C13.7339 4.25581 15.1395 5.66143 15.1395 7.39535C15.1395 9.12927 13.7339 10.5349 11.9999 10.5349C10.266 10.5349 8.86041 9.12927 8.86041 7.39535Z" fill="#969696"/>
<path fill-rule="evenodd" clip-rule="evenodd" d="M17.2148 14.5779C17.0787 14.5011 16.9584 14.4333 16.861 14.3753C13.8856 12.6036 10.1146 12.6036 7.13915 14.3753C7.04177 14.4333 6.92148 14.5012 6.7853 14.578C6.18852 14.9147 5.28642 15.4236 4.66842 16.0285C4.28191 16.4068 3.91466 16.9054 3.8479 17.5162C3.7769 18.1657 4.06026 18.7753 4.62874 19.3169C5.60949 20.2512 6.78643 21 8.30873 21H15.6915C17.2138 21 18.3907 20.2512 19.3714 19.3169C19.9399 18.7753 20.2233 18.1657 20.1523 17.5162C20.0855 16.9054 19.7183 16.4068 19.3318 16.0285C18.7138 15.4236 17.8116 14.9146 17.2148 14.5779ZM7.78164 15.4543C10.3612 13.9183 13.639 13.9183 16.2186 15.4543C16.3591 15.538 16.5131 15.6254 16.6745 15.7169C17.2711 16.0554 17.9677 16.4506 18.4533 16.926C18.7548 17.2211 18.8834 17.4645 18.9039 17.6526C18.9202 17.802 18.8825 18.0482 18.5052 18.4076C17.638 19.2338 16.7568 19.7442 15.6915 19.7442H8.30873C7.24343 19.7442 6.3622 19.2338 5.49498 18.4076C5.1177 18.0482 5.07995 17.802 5.09628 17.6526C5.11684 17.4645 5.24536 17.2211 5.54686 16.926C6.03252 16.4506 6.72909 16.0554 7.32569 15.7169C7.487 15.6254 7.6411 15.538 7.78164 15.4543Z" fill="#969696"/>
</svg>
