<svg width="128" height="129" viewBox="0 0 128 129" fill="none" xmlns="http://www.w3.org/2000/svg">
<g clip-path="url(#clip0_452_2695)">
<path d="M126.196 79.087C134.505 44.7337 113.392 10.149 79.0387 1.83984C44.6853 -6.46928 10.1006 14.6437 1.79148 48.997C-6.51764 83.3504 14.5954 117.935 48.9487 126.244C83.302 134.553 117.887 113.44 126.196 79.087Z" fill="#D80027" fill-opacity="0.2"/>
<path d="M74.4742 117.606C103.837 112.77 123.72 85.0464 118.884 55.6835C114.049 26.3207 86.3251 6.43757 56.9623 11.2733C27.5994 16.1091 7.71631 43.8326 12.5521 73.1954C17.3879 102.558 45.1113 122.441 74.4742 117.606Z" fill="#F7CCD4"/>
<path d="M112.675 84.5341C123.99 57.6477 111.368 26.6792 84.4811 15.3639C57.5947 4.04871 26.6261 16.6717 15.3109 43.5581C3.99568 70.4445 16.6186 101.413 43.505 112.728C70.3915 124.043 101.36 111.421 112.675 84.5341Z" fill="#D82022"/>
<path d="M82.5553 109.525C107.677 99.2711 119.729 70.5932 109.475 45.4716C99.2206 20.35 70.5427 8.29773 45.4211 18.5521C20.2995 28.8064 8.24725 57.4842 18.5016 82.6058C28.7559 107.727 57.4337 119.78 82.5553 109.525Z" fill="white"/>
<path d="M63.9102 86.58C63.8743 86.58 63.8385 86.58 63.8026 86.58C55.1871 86.5561 45.9254 82.9543 36.9988 76.1696C30.3098 71.0841 26.2055 66.0823 26.026 65.8669L25.2841 64.9575L25.9781 64.0241C26.1456 63.7968 30.2859 58.2924 37.0107 52.7283C45.9613 45.3094 55.2469 41.3965 63.8504 41.3965C63.8863 41.3965 63.9102 41.3965 63.9461 41.3965C72.5856 41.4204 81.8712 45.4051 90.8097 52.9197C97.4868 58.5318 101.591 64.06 101.759 64.2994L102.453 65.2447L101.711 66.1421C101.543 66.3455 97.391 71.3353 90.6781 76.361C81.7515 83.05 72.4898 86.58 63.9102 86.58ZM29.1371 64.8857C32.5833 68.7268 46.9425 83.5287 63.8145 83.5885C63.8504 83.5885 63.8863 83.5885 63.9102 83.5885C80.7703 83.5885 95.1654 68.9421 98.6235 65.125C95.2611 60.9608 80.866 44.4478 63.9461 44.388C63.9102 44.388 63.8863 44.388 63.8504 44.388C46.9545 44.388 32.5115 60.7455 29.1371 64.8857Z" fill="#D82022"/>
<path d="M63.9222 48.6719C55.4623 48.648 48.5819 55.4806 48.546 63.9405C48.522 72.4005 55.3546 79.2809 63.8145 79.3168C72.2745 79.3407 79.1549 72.5082 79.1908 64.0482C79.2267 55.5763 72.3941 48.6959 63.9222 48.6719ZM63.8504 71.7064C59.5906 71.6945 56.1444 68.2243 56.1563 63.9644C56.1683 59.7046 59.6384 56.2584 63.8983 56.2703C68.1582 56.2823 71.6044 59.7524 71.5924 64.0123C71.5805 68.2722 68.1103 71.7184 63.8504 71.7064Z" fill="#D82022"/>
</g>
<defs>
<clipPath id="clip0_452_2695">
<rect width="128" height="128" fill="white" transform="translate(0 0.0429688)"/>
</clipPath>
</defs>
</svg>
