<svg width="24" height="25" viewBox="0 0 24 25" fill="none" xmlns="http://www.w3.org/2000/svg">
<path d="M18.497 4.45163C20.3114 6.00002 21.5125 8.14594 21.8836 10.5021C22.2548 12.8583 21.7715 15.2696 20.5211 17.3007C19.2706 19.3319 17.3353 20.8492 15.0644 21.5788C12.7935 22.3085 10.3366 22.2023 8.13702 21.2796L7.91402 21.1816L3.15502 22.0306L3.04502 22.0416C3.00838 22.0436 2.97165 22.0436 2.93502 22.0416L2.83302 22.0286L2.72502 22.0046L2.62002 21.9676L2.52102 21.9206L2.42802 21.8626L2.41402 21.8516L2.40202 21.8446L2.31602 21.7716L2.23902 21.6916L2.17202 21.6036L2.11602 21.5096L2.08202 21.4396L2.04202 21.3316L2.01402 21.2036L2.00202 21.1016C1.99941 21.06 1.99941 21.0183 2.00202 20.9766L2.01402 20.8766L2.03802 20.7666L2.08302 20.6446L3.51602 17.3406L3.50702 17.3266C2.30477 15.3858 1.80284 13.092 2.08463 10.8264C2.36641 8.56079 3.41496 6.45983 5.05602 4.87263L5.27102 4.66963C7.07104 3.02909 9.40789 2.10185 11.843 2.06189C14.2781 2.02194 16.6441 2.87103 18.497 4.45163ZM9.50002 7.54263C9.10219 7.54263 8.72066 7.70066 8.43936 7.98197C8.15805 8.26327 8.00002 8.6448 8.00002 9.04263V10.0426C8.00002 11.6339 8.63216 13.16 9.75738 14.2853C10.8826 15.4105 12.4087 16.0426 14 16.0426H15C15.3978 16.0426 15.7794 15.8846 16.0607 15.6033C16.342 15.322 16.5 14.9405 16.5 14.5426C16.5 14.1448 16.342 13.7633 16.0607 13.482C15.7794 13.2007 15.3978 13.0426 15 13.0426H14L13.856 13.0496C13.6272 13.0716 13.4064 13.1459 13.2108 13.2667C13.0152 13.3876 12.85 13.5518 12.728 13.7466L12.686 13.8206L12.664 13.8136C12.1028 13.6141 11.593 13.292 11.1718 12.8708C10.7506 12.4496 10.4286 11.9399 10.229 11.3786L10.221 11.3556L10.296 11.3146C10.5116 11.1797 10.6893 10.9921 10.8124 10.7696C10.9356 10.5471 11.0001 10.2969 11 10.0426V9.04263C11 8.6448 10.842 8.26327 10.5607 7.98197C10.2794 7.70066 9.89784 7.54263 9.50002 7.54263Z" fill="#FAFAFA"/>
</svg>
