<svg width="24" height="24" viewBox="0 0 24 24" fill="none" xmlns="http://www.w3.org/2000/svg">
<path d="M13.9236 11.843L11.2284 10.5854C10.9932 10.4762 10.8 10.5986 10.8 10.859V13.2278C10.8 13.4882 10.9932 13.6106 11.2284 13.5014L13.9224 12.2438C14.1588 12.1334 14.1588 11.9534 13.9236 11.843ZM12 0.523438C5.63758 0.523438 0.47998 5.68104 0.47998 12.0434C0.47998 18.4058 5.63758 23.5634 12 23.5634C18.3624 23.5634 23.52 18.4058 23.52 12.0434C23.52 5.68104 18.3624 0.523438 12 0.523438ZM12 16.7234C6.10318 16.7234 5.99998 16.1918 5.99998 12.0434C5.99998 7.89504 6.10318 7.36344 12 7.36344C17.8968 7.36344 18 7.89504 18 12.0434C18 16.1918 17.8968 16.7234 12 16.7234Z" fill="#FAFAFA"/>
</svg>
