<?xml version="1.0" encoding="utf-8"?>
<!-- Generator: Adobe Illustrator 24.1.1, SVG Export Plug-In . SVG Version: 6.00 Build 0)  -->
<svg version="1.1" id="Layer_1" xmlns="http://www.w3.org/2000/svg" xmlns:xlink="http://www.w3.org/1999/xlink" x="0px" y="0px"
	 viewBox="0 0 2000 2000" style="enable-background:new 0 0 2000 2000;" xml:space="preserve">
<style type="text/css">
	.st0{fill:#DB251F;}
	.st1{fill:#109745;}
	.st2{display:none;}
	.st3{display:inline;fill:#1D1D1B;}
	.st4{display:inline;fill:#0B672F;}
	.st5{display:inline;fill:#109745;}
	.st6{display:inline;fill:#DB251F;}
</style>
<g>
	<path class="st0" d="M1362.33,1034.6c0-167.23,0-332.28,0-499.44c42.55,0,84.91-1.89,126.96,0.85
		c19.22,1.25,32.4,19.56,38.07,36.74c22.98,69.69,23.46,139.53-4.06,210.58c22.46,36.22,28.61,79.3,25.74,122.81
		c-2.51,38-3.37,77.39-27.39,110.84c-7.91,11.01-18.44,16.95-30.36,17.23C1448.89,1035.21,1406.46,1034.6,1362.33,1034.6z
		 M1443.94,818.55c0,34.71,0,68.17,0,101.7c15.57-1.92,22.26-11.92,24.27-35.54C1471.5,845.96,1464.01,823.99,1443.94,818.55z
		 M1444.19,730.74c19.07-4.2,20.15-18.11,20.4-32c0.95-51.19-0.55-55.23-20.4-59.36C1444.19,669.27,1444.19,699.16,1444.19,730.74z"
		/>
	<path class="st0" d="M1092.24,1034.08c-28.84,0-55.81,0-84.37,0c-1.99-61.83,3.24-124.49-27.86-181.95c0,60.06,0,120.13,0,181.33
		c-28.01,0-54.22,0-81.5,0c0-165.41,0-330.94,0-498.42c41.76,0,83.67-2.42,125.11,0.96c22.71,1.85,33.16,24.85,39.82,44.47
		c16.91,49.8,18.21,101.09,12.01,153.21c-2.35,19.79-7.4,38.28-13.41,56.91c-4.62,14.33,3.72,27.15,6.83,40.17
		c8.07,33.79,13.41,67.79,16.72,102.34C1088.77,966.12,1093.25,999.01,1092.24,1034.08z M979.4,735.06
		c25.16-20.04,16.02-45.23,16.85-67.29c0.4-10.47-1.42-23.04-16.85-26.17C979.4,671.98,979.4,701.28,979.4,735.06z"/>
	<path class="st0" d="M343.44,1034.13c-26.76,0-52.62,0-79.38,0c-8.21-27.27-5.84-56.09-13.52-83.88c-16.17,0-32.54,0-49.61,0
		c-9.05,26.78-5.41,55.81-13.43,83.61c-26.37,0-52.74,0-79.93,0C127.82,868.09,148,702.9,168.35,536.31c37.22,0,75.23,0,114.32,0
		C302.8,701.23,323.03,866.98,343.44,1034.13z M237.5,828.45c-3.96-34.5-7.73-67.27-11.89-103.58
		c-4.25,36.87-8.08,70.15-11.94,103.58C222.72,828.45,229.63,828.45,237.5,828.45z"/>
	<path class="st0" d="M872.47,1034.08c-27.74,0-53.58,0-80.03,0c-7.5-27.57-5-56.42-12.89-83.94c-17.1,0-33.5,0-51.37,0
		c-2.66,22.31-6.04,44.5-7.69,66.82c-0.95,12.95-5.05,18.61-18.94,17.93c-21.19-1.03-42.46-0.27-64.54-0.27
		c4.16-37.8,7.78-74.92,12.41-111.91c6.62-52.79,14.34-105.45,20.89-158.25c4.28-34.55,7.03-69.29,10.98-103.88
		c4.4-38.54,9.52-77,14.01-115.54c0.88-7.53,4.63-10.09,11.6-10.07c34.72,0.07,69.44,0.03,104.4,0.03
		C831.77,701.9,852.03,867.3,872.47,1034.08z M766.61,828.4c-4.02-32.81-7.91-64.62-11.81-96.43c-0.44,0.07-0.88,0.14-1.32,0.22
		c-3.58,31.84-7.17,63.69-10.83,96.22C749.67,828.4,756.61,828.4,766.61,828.4z"/>
	<path class="st0" d="M1338.19,1034.06c-29.03,0-54.84,0-81.23,0c-3.3-27.91-6.55-55.37-10-84.5c-4.4,0-8.96,0.03-13.52,0
		c-39.81-0.28-40.02-0.32-45.11,37.55c-2.01,14.99-2.85,30.13-4.32,46.35c-26.14,0-52.43,0-81.69,0
		c20.28-165.82,40.53-331.49,60.86-497.74c37.85,0,74.34,0,113.99,0C1297.38,700.83,1317.67,866.54,1338.19,1034.06z
		 M1222.31,740.94c-1.84-0.03-3.68-0.06-5.52-0.1c1.17,29.5-7.89,58.12-7.11,89.32c8.3-2.66,14.98,1.53,21.87-4.62
		C1228.53,797.85,1225.42,769.39,1222.31,740.94z"/>
	<path class="st0" d="M1748.12,535.26c38.92,0,74.9,0,113.85,0c20.29,165.63,40.6,331.34,61.05,498.3c-28.06,0-54.34,0-81.2,0
		c-3.25-27.48-6.5-54.94-9.84-83.16c-18.01,0-35.99,0-55.13,0c0.96,28.2-6.73,54.72-7.95,83.09c-26.2,0-52.48,0-81.73,0
		C1707.47,867.58,1727.73,701.91,1748.12,535.26z M1807.26,740.95c-1.45,0-2.91-0.01-4.36-0.01c-3.02,29.11-6.04,58.21-9.28,89.39
		c9.22-2.75,15.83,1.25,22.85-4.69C1813.46,797.91,1810.36,769.43,1807.26,740.95z"/>
	<path class="st0" d="M370.41,535.59c26.92,0,52.71,0,80.16,0c0,123.65,0,246.71,0,370.8c22.7,0,43.78,0,66.23,0
		c0,42.57,0,84.14,0,126.97c-47.9,0-96.57,0-146.39,0C370.41,868.21,370.41,702.65,370.41,535.59z"/>
	<path class="st0" d="M1582.64,535.55c27.02,0,52.8,0,79.56,0c0,166.02,0,331.46,0,497.98c-26.16,0-52.36,0-79.56,0
		C1582.64,868.02,1582.64,702.57,1582.64,535.55z"/>
	<path class="st0" d="M511.74,863.63c0-30.96,0-60.22,0-90.36c36.25,0,71.84,0,108.32,0c0,30.12,0,59.79,0,90.36
		C584.03,863.63,548.45,863.63,511.74,863.63z"/>
	<path class="st1" d="M1580.31,1078.17c3.73,15.78,7.47,31.62,11.21,47.45c1.06-0.06,2.12-0.13,3.19-0.19
		c3.29-15.69,6.58-31.38,10-47.67c11.53,0,23.18,0,36.03,0c0,35.66,0,71.3,0,107.63c-6.77,3.21-14.22,1.3-23.09,0.98
		c0-17.09,0-33.95,0-50.82c-0.87-0.07-1.74-0.15-2.61-0.22c-3.29,16.69-6.58,33.38-9.97,50.57c-15.7,3.03-28.44,3.45-28.55-19.12
		c-0.06-11.62-4.67-23.21-8.88-34.65c0,17.5,0,35.01,0,52.54c-7.98,4.11-15.47,1.89-23.9,1.85c0-35.95,0-71.62,0-108.33
		C1555.21,1078.17,1566.78,1078.17,1580.31,1078.17z"/>
	<path class="st1" d="M1303.13,1179.24c-3.57,7.61-6.45,13.76-10.22,21.79c-12.38-13.69-27.77-11.97-44.05-10.97
		c-20.35,1.25-37.35-13.62-41.7-36.43c-2.66-13.93-2.06-28.39,1.37-43.11c8.62-36.97,48.34-40.88,71.96-26.16
		c11.73,7.31,15,20.92,16.72,32.58c1.96,13.32,4.12,27.91-2.45,41.31C1290.17,1167.59,1290.47,1175.55,1303.13,1179.24z
		 M1251.23,1141.02c4.71,1.98,9.25,3.9,12.62,5.32c12.57-11.02,2.22-22.13,0.6-32.87c-0.73-4.83-7.03-9.15-14.1-8.01
		c-6.57,1.06-11.46,5.14-12.15,10.96c-1.65,13.86-3.88,28.16,4.87,41.33C1245.72,1152,1246.18,1145.4,1251.23,1141.02z"/>
	<path class="st1" d="M1745.94,1077.86c41.29-7.56,35.33,34.36,55.08,50.08c0-16.12,0-32.25,0-49.01
		c9.39-3.21,18.04-1.38,27.69-1.54c0,36.17,0,71.86,0,107.69c-39.55,13.86-37.7-25.5-55.48-43.03c0,15.25,0,29.43,0,44.21
		c-9.83,0-17.94,0-27.28,0C1745.94,1150.84,1745.94,1115.14,1745.94,1077.86z"/>
	<path class="st1" d="M288.49,1077.31c19.58,0.96,38.19-2.9,56.67,2.16c25.38,6.95,33.44,30.9,17.37,52.01
		c-2.13,2.8-4.77,5.21-7.42,8.06c4.08,7.48,8.53,14.76,12.11,22.43c3.36,7.2,5.8,14.82,9.18,23.66c-11.27,0-22.03,0-34.38,0
		c-5.37-11.82-11.34-24.95-17.3-38.08c-1.4,0.25-2.79,0.51-4.19,0.76c0,12.36,0,24.72,0,37.84c-11.92,0-21.6,0-32.03,0
		C288.49,1150.2,288.49,1114.97,288.49,1077.31z M321.32,1102.05c-2.28,5.81-2.71,11.25-0.06,16.79c5.35,0.99,10.39,1.79,15.47-0.84
		C339.72,1104.75,331.39,1102.77,321.32,1102.05z"/>
	<path class="st1" d="M680.06,1186.43c-10.01,0-19.26,0-30.12,0c0-13.4,0-26.65,0-39.69c-8.73-3.71-16.12-2.14-25.06-1.52
		c0,13.41,0,26.69,0,40.83c-10.03,0-18.51,0-27.87,0c0-35.96,0-71.56,0-108.04c8.93,0,17.4,0,27.48,0c0,12.57,0,24.63,0,37.38
		c8.47,0,15.37,0,23.15,0c4.26-11.33-0.19-23.84,2.6-36.83c9.12-2.92,18.95-0.87,29.82-1.26
		C680.06,1113.36,680.06,1148.96,680.06,1186.43z"/>
	<path class="st1" d="M1308.73,1077.86c10.82,0,20.09,0,31.87,0c0,20.65,0.26,41.65-0.12,62.64c-0.17,9.33,0.38,20.47,10.74,20.61
		c11.33,0.15,14.47-10.66,14.29-21.58c-0.34-20-0.1-40.02-0.1-61.21c9.21,0,17.71,0,28.3,0c0,27.13,1.27,54.73-0.42,82.16
		c-1.24,20.08-18.36,30.5-43.43,30.05c-23.56-0.42-39.24-13.73-40.79-38.1C1307.51,1127.89,1308.73,1103.18,1308.73,1077.86z"/>
	<path class="st1" d="M1198.01,1077.98c0,9.91,0,17.97,0,27.06c-14.72,0-28.69,0-42.43,0c-2.72,12.91-2.72,12.91,37.79,15.37
		c3.74,6.98,1.37,14.49,1.48,23.43c-13.51,0-26.78,0-39.25,0c-4.34,6.26-2.71,11.36-2.04,17.95c14.44,0,28.91,0,44.28,0
		c0,8.82,0,16.11,0,24.3c-25.27,0-50.28,0-76.17,0c0-36.08,0-71.67,0-108.11C1147.2,1077.98,1172.2,1077.98,1198.01,1077.98z"/>
	<path class="st1" d="M508.56,1077.7c24.66,0,48.05,0,72.42,0c0,9.01,0,17.48,0,27.04c-12.96,0-25.75,0-38.25,0
		c-3.97,14.62-3.97,14.68,9.99,14.89c8.09,0.12,16.19,0.02,24.97,0.02c0,8.47,0,15.37,0,23.14c-11.35,4.2-23.87-0.18-36.11,2.42
		c-4.1,4.36-1.52,9.73-1.89,16.28c14.63,0,29.09,0,43.3,0c4.16,8.61,2.16,16.06,1.95,24.45c-25.29,0-50.32,0-76.39,0
		C508.56,1150.38,508.56,1114.79,508.56,1077.7z"/>
	<path class="st1" d="M992.54,1162.31c0,8.47,0,15.37,0,23.48c-24.83,0-49.87,0-76.13,0c0-35.06,0-70.65,0-107.46
		c23.27,0,47.09,0,72.08,0c0,8.04,0,16.52,0,26.62c-12.88,0-26.17,0-39.24,0c-1.27,12.22-1.27,12.22,35.96,16.05
		c0,7.18,0,14.47,0,22.81c-11.99,0-23.61,0-34.75,0c-5.52,5.94-2.32,11.54-3.39,18.49C963.03,1162.31,977.5,1162.31,992.54,1162.31z
		"/>
	<path class="st1" d="M1726.25,1119.62c0,8.42,0,15.31,0,23.13c-11.27,4.29-23.78-0.12-35.99,2.4c-4.28,4.31-1.52,9.74-2,15.38
		c13.17,3.89,26.82-0.09,41.12,2.53c0,7.13,0,14.42,0,22.84c-23.43,0-47.28,0-72.21,0c0-35.48,0-71.07,0-107.73
		c23.72,0,47.53,0,72.37,0c0,8.47,0,16.94,0,24.64c-11.83,10.32-33.78-8.66-44.26,16.79
		C1701.33,1119.62,1713.43,1119.62,1726.25,1119.62z"/>
	<path class="st1" d="M1073.13,1111.38c-14.51,4.02-26.88,1.71-34.74-12.43c-4.31,2.52-7.51,4.94-9.25,11.16
		c29.95,6.45,57.04,16.9,48.69,56.16c-3.24,15.2-22.58,25.53-43.49,24.24c-22.53-1.38-33.06-13.11-36.86-41.16
		c17.67-4.96,31.86-1.18,39.24,16.8c6.94-1.93,11.69-5.02,11.46-10.51c-0.27-6.47-6.61-9.42-11.87-10.8
		c-11.1-2.91-22.03-5.66-29.06-15.68c-7.46-10.63-10.45-22-3.46-34.06c6.91-11.93,16.71-18.28,31.31-18.16
		C1065.6,1077.18,1076.2,1086.28,1073.13,1111.38z"/>
	<path class="st1" d="M825.68,1111.77c-11.81,2.03-23.81,17.53-34.68-3.61c-3.08-5.98-13.42-4.84-17.17,3.49
		c-6.19,13.75-5.96,27.92-0.89,42.22c2.21,6.22,8.42,8.42,12.09,7.56c9.1-2.13,13.75-9.6,13.48-20.77
		c10.21,3.29,19.1,6.16,27.82,8.97c-3.34,43.47-47.58,51.43-69.91,31.54c-19.06-16.98-22.56-41.56-15.38-67.06
		c8.4-29.79,17.48-37.4,47.38-36.97C808.02,1077.41,817.64,1085.97,825.68,1111.77z"/>
	<path class="st1" d="M438.49,1186.98c-11.26-36.56-22.3-72.38-33.43-108.5c2.06-0.5,3.69-1.16,5.34-1.24c27.17-1.3,27-1.24,33.4,26
		c3.11,13.23,7.01,26.28,11.61,43.35c6.56-25.59,12.07-47.1,17.62-68.72c10.51,0,20.31,0,30.44,0
		c-9.51,33.67-18.63,66.62-28.26,99.42c-1.77,6.03-5.2,11.2-13.79,9.92C453.98,1186.1,446.25,1186.98,438.49,1186.98z"/>
	<path class="st1" d="M1458.13,1185.99c0-36.61,0-71.73,0-108.83c18.84,1.37,37.18-3.27,55.38,3.16c16.7,5.9,21.85,16.89,18.39,43
		c-2,15.06-11.12,23.66-26.58,24.62c-5.79,0.36-11.61,0.06-17.14,0.06c-3.9,6.85-1.76,13.42-2.15,19.7
		c-0.36,5.77-0.08,11.57-0.08,18.3C1476.4,1185.99,1467.93,1185.99,1458.13,1185.99z M1486.69,1122.18
		c8.29,2.54,15.02,0.43,15.28-6.94c0.29-7.95-6.08-12.39-14.61-12.81C1484.93,1108.87,1485.87,1115.08,1486.69,1122.18z"/>
	<path class="st1" d="M108.01,1077.67c23.36,0,45.58,0,68.81,0c0,8.98,0,17.45,0,27.53c-12.18,0-24.31,0-38.31,0
		c1.8,25.87,23.22,7.07,31.5,18.37c0,4.5,0,11.41,0,19.19c-8.93,3.92-19.14,0.14-29.65,2.47c-3.83,12.68,0.27,26.31-2.43,40.57
		c-9.46,0-19.12,0-29.91,0C108.01,1150.53,108.01,1114.91,108.01,1077.67z"/>
	<path class="st1" d="M1837.53,1109.46c0-11.48,0-20.74,0-31.17c27.4,0,54.79,0,83.33,0c0,9.34,0,19,0,29.93
		c-8.33,0.46-16.88,0.94-26.98,1.5c0,25.46,0,50.52,0,76.4c-10.07,0-18.55,0-28.65,0c0-25.62,0-50.69,0-76.66
		C1855.57,1109.46,1847.48,1109.46,1837.53,1109.46z"/>
	<path class="st1" d="M907.02,1186.31c-24.72,0-48.16,0-72.47,0c0-36.32,0-71.99,0-108.42c9.9,0,19.18,0,30.1,0
		c0,25.82,0,52.09,0,80c14.8,0,28.06,0,42.37,0C907.02,1168.01,907.02,1176.49,907.02,1186.31z"/>
	<path class="st1" d="M696.25,1077.81c10.89,0,20.13,0,30.21,0c0,36.24,0,71.8,0,108.27c-10.07,0-19.71,0-30.21,0
		C696.25,1150.06,696.25,1114.5,696.25,1077.81z"/>
	<path class="st1" d="M1412.51,1077.61c9.17,0,17.25,0,26.34,0c0,36.03,0,71.6,0,108.28c-8.35,0-16.82,0-26.34,0
		C1412.51,1150.47,1412.51,1114.9,1412.51,1077.61z"/>
</g>
<g class="st2">
	<path class="st3" d="M1367.77,1081.9c0-173.69,0-344.88,0-518.11c40.54,0,80.88-2.45,120.77,0.72
		c36.29,2.89,51.51,32.18,58.47,63.45c11.75,52.78,15.57,107.14-0.74,158.96c-8.39,26.65-4.1,46.75,3.76,71.49
		c11.32,35.64,14.54,73.07,9.55,111.64c-3.7,28.6-6.66,56.5-19.42,82.63c-9.49,19.42-22.9,30.46-46.56,29.63
		C1452.16,1080.85,1410.63,1081.9,1367.77,1081.9z M1452.46,966.24c22.69-9.46,27.84-19.56,24.7-60.61
		c-1.37-17.9-0.77-39.24-24.7-49C1452.46,894.13,1452.46,929.52,1452.46,966.24z M1452.74,674.16c0,31.9,0,63.2,0,97.17
		c32.3-18.18,19.09-47.33,20.52-71.21C1473.92,689.16,1471.34,674.23,1452.74,674.16z"/>
</g>
<g class="st2">
	<path class="st3" d="M886.7,563.69c40.3,0,79.44-0.59,118.54,0.21c24.42,0.5,39.61,16.1,47.99,37.13
		c22.11,55.5,24.24,113.14,16.73,171.83c-2.51,19.64-5.81,38.7-14.09,56.75c-1.82,3.97-1.18,8.06-0.01,12.34
		c12.61,46.09,20.92,92.85,25.11,140.57c2.85,32.4,7.67,64.58,6.76,98.3c-29.09,0-57.53,0-87.44,0c-1.98-31.67,0.4-63.73-3.93-95.63
		c-4.19-30.87-2.88-62.77-25.44-94.45c0,66.63,0,127.84,0,190.1c-28.79,0-56,0-84.24,0C886.7,909.22,886.7,737.51,886.7,563.69z
		 M970.61,769.98c17.76-10.75,22.46-27.23,17.58-66.24c-1.33-10.65-1.34-25.02-17.58-28.13
		C970.61,707.03,970.61,737.57,970.61,769.98z"/>
	<path class="st3" d="M1342.58,1081.1c-29.78,0-57.05,0-84.39,0c-3.33-27.55-6.56-54.31-9.96-82.46c-17.94,0-37.06,0-57.23,0
		c0.55,27.52-6.48,53.88-7.93,82.07c-27.61,0-55.34,0-84.79,0c21.08-172.27,42.08-343.86,63.17-516.19c39.08,0,77.45,0,117.78,0
		C1300.27,736.05,1321.31,907.62,1342.58,1081.1z M1220.65,777.94c-2.67,31.37-12.26,61.8-11.16,93.92
		c8.26,0.24,14.78,2.1,21.55-1.42C1233.14,839.18,1222.39,809.19,1220.65,777.94z"/>
	<path class="st3" d="M310.98,1081.9c-25,0-49.45-0.29-73.89,0.13c-11.22,0.19-12.91-7.38-13.05-15.18
		c-0.42-22.92-4.65-45.3-8.14-68.64c-17.63,0-35.18,0-54.06,0c-3.85,27.54-7.69,55.08-11.6,83.05c-28.58,0-55.98,0-83.63,0
		c21.06-172.31,42.04-343.97,63.15-516.63c38.93,0,78.44,0,117.94,0C268.71,736.5,289.72,908.19,310.98,1081.9z M188.85,763.32
		c-4.53,39.03-8.55,73.65-12.64,108.86c9.95-0.31,17.83,2.03,25.24-1.58C197.43,836.36,193.45,802.5,188.85,763.32z"/>
	<path class="st3" d="M1949.21,1081.3c-29.42,0-56.21,0-84.29,0c-3.28-27.07-6.57-54.27-10.03-82.76c-17.57,0-36.26,0-55.99,0
		c-3.05,26.63-6.17,53.89-9.42,82.27c-26.94,0-54.23,0-84.5,0c21.01-171.9,42.02-343.8,63.11-516.35c38.78,0,76.62,0,117.79,0
		C1906.84,735.48,1927.91,907.45,1949.21,1081.3z M1814.46,874c10.33-3.08,17.26,0.87,23.24-3.87c2.34-31.29-8.89-60.89-7.31-91.77
		c-1.68-0.06-3.36-0.11-5.04-0.17C1821.85,808.98,1818.35,839.76,1814.46,874z"/>
	<path class="st3" d="M859.44,1081.14c-27.58,0-54.95,0-83.31,0c-3.16-22.54-8.15-44.67-8.13-67.49
		c0.01-11.59-4.73-17.47-17.5-16.49c-12.76,0.98-25.66,0.21-39.81,0.21c-3.55,23.04-9.12,45.65-8.62,68.93
		c0.26,12.15-4.21,16.14-16.08,15.8c-23.22-0.67-46.48-0.2-70.34-0.2c4.28-38.46,8.02-76.26,12.78-113.93
		c5.55-43.88,12.38-87.61,17.93-131.49c4.36-34.53,7.28-69.25,11.47-103.81c4.25-35.03,9.52-69.93,13.85-104.95
		c2.07-16.72,3.32-33.57,4.29-50.4c0.43-7.49,1.29-13.61,10.6-13.61c36.59-0.03,73.17-0.01,109.56-0.01
		C817.33,737.03,838.34,908.69,859.44,1081.14z M738.2,771.59c-0.66,0.1-1.33,0.2-1.99,0.3c-3.82,33.08-7.63,66.15-11.5,99.62
		c8.36,1.22,16.06,1.72,25.23-0.57C746,837.64,742.1,804.62,738.2,771.59z"/>
	<path class="st3" d="M490.93,1081.25c-50.44,0-100.48,0-151.82,0c0-171.47,0-343.17,0-516.21c26.18,0,53.4,0,82.11,0
		c0,126.62,0,254.23,0,383.38c23.71,0,46.05,0,69.71,0C490.93,993.04,490.93,1036.16,490.93,1081.25z"/>
	<path class="st3" d="M1678.78,1081.43c-27.75,0-54.53,0-82.39,0c0-172.07,0-343.78,0-516.62c26.86,0,54.07,0,82.39,0
		C1678.78,736.23,1678.78,907.94,1678.78,1081.43z"/>
	<path class="st3" d="M485.34,904.42c0-31.5,0-61.92,0-93.41c37.4,0,74.39,0,112.47,0c0,30.61,0,61.47,0,93.41
		C561.05,904.42,524.06,904.42,485.34,904.42z"/>
	<path class="st3" d="M1556.16,1130.41c12.23,0,24.27,0,38.16,0c3.65,16.06,7.47,32.86,11.29,49.66c0.95-0.11,1.91-0.22,2.86-0.34
		c3.3-16.29,6.61-32.57,9.99-49.28c12.78,0,25.34,0,38.62,0c0,37.73,0,74.7,0,112.03c-8.29,1.77-15.88,1.63-24.92-0.03
		c0-17.48,0-34.79,0-52.1c-0.7-0.04-1.41-0.08-2.11-0.12c-3.01,13.72-7.05,27.32-8.66,41.2c-1.13,9.71-5.23,11.79-13.95,12.47
		c-10.17,0.8-15.26-4.01-15.49-12.65c-0.41-15.68-9.36-29.16-11.54-44.63c0,18.58,0,37.17,0,56.34c-8.59,0-15.76,0-24.26,0
		C1556.16,1205.96,1556.16,1168.56,1556.16,1130.41z"/>
	<path class="st3" d="M1294.83,1257.68c-11.35-14.1-24.42-15.18-37.94-14.01c-27.73,2.39-41.41-8.28-49.61-37.29
		c-5.14-18.18-3.24-37.39,4.35-54.64c7.89-17.95,31.56-29.1,48.92-25.63c23.19,4.63,38.97,20.47,40.25,43.69
		c0.85,15.45,2.93,31.37-3.06,46.7c-1.16,2.97-5.27,6.91,0,11C1310.46,1237.37,1300.12,1245.71,1294.83,1257.68z M1266.12,1201.91
		c8.23-13.72,5.8-25.73-1.48-37.54c-5.13-8.31-10.06-12.36-18.8-3.45c-11.16,11.38-12.33,32.93-1.63,48.45
		c4-3.94,3.56-11.11,6.46-12.4C1259.93,1194.28,1261.96,1200.69,1266.12,1201.91z"/>
	<path class="st3" d="M1851.52,1242.32c-21.34,5.58-35.87-0.71-42.16-22.14c-2.53-8.61-8.57-15.11-14.9-24.74
		c0,16.89,0,31.58,0,47.2c-10.4,0-19.23,0-29.05,0c0-36.97,0-73.97,0-111.07c20.28-7.24,32.06,1.35,39.65,19.96
		c3.98,9.75,9.92,18.69,17.11,31.91c0-19.76,0-35.55,0-52.52c10.48,0,19.33,0,29.36,0
		C1851.52,1167.16,1851.52,1204.16,1851.52,1242.32z"/>
	<path class="st3" d="M254.31,1129.68c16.94,0,32.82,0.69,48.6-0.2c14.66-0.83,26.18,1.8,31.92,17.22
		c5.39,14.5,5.26,27.96-4.83,40.38c-1.92,2.36-4.17,4.44-6.33,6.72c9.8,14.9,16.05,31.17,22.05,48.96c-12.64,0-24,0-35.82,0
		c-4.32-15.07-12.79-28.28-22.8-41.67c0,13.48,0,26.96,0,41.45c-11.59,0-21.65,0-32.79,0
		C254.31,1205.82,254.31,1168.83,254.31,1129.68z M287.45,1172.5c14.37,0.65,14.82,0.78,16.96-6.55c0.85-2.9,1.88-7.06-1.49-9.67
		c-5.37,0-10.45,0-15.56,0C286,1162.29,285.63,1167.42,287.45,1172.5z"/>
	<path class="st3" d="M629.05,1130.34c10.52,0,20.15,0,32.34,0c0,18.24,0,36.92,0,55.6c0,18.78,0,37.57,0,56.99
		c-11.21,0-20.83,0-31.49,0c-3.88-13.42,0.03-28.13-2.33-42.77c-8.06,0-15.24,0-23.43,0c-3.69,13.09-0.23,27.14-2.14,41.83
		c-8.34,3.56-17.47,0.77-27.59,1.7c0-37.79,0-75.22,0-113.33c8.69,0,17.09,0,26.5,0c4.24,10.88-0.5,23.34,2.82,35.43
		c7.6,0,14.79,0,22.93,0C630.29,1155.19,626.94,1143.53,629.05,1130.34z"/>
	<path class="st3" d="M189.29,1404.17c-1.67-38.47,14.16-52.95,36.72-59.11c21.13-5.77,47.51,5.99,54.51,26.43
		c6.97,20.35,7.22,41.39-0.08,61.63c-9.9,27.44-26.43,29.69-54.98,27.73c-18.52-1.27-34.82-21.13-36.13-42.04
		C189.03,1413.96,189.29,1409.06,189.29,1404.17z M251.94,1400.8c2.52-11.51-1.84-25.88-16.32-25.98
		c-14.6-0.1-16.08,17.39-16.23,28.71c-0.15,11.55,0.77,27.94,18.04,27.62C255.48,1430.82,251.26,1415.13,251.94,1400.8z"/>
	<path class="st3" d="M1117.75,1242.56c0-37.61,0-74.14,0-111.77c26.29,0,52.25,0,79.34,0c0,7.24,0,14.83,0,22.8
		c-13.84,8.59-36.4-8.58-50.7,15.91c18.3,0,32.12,0,45.81,0c4.02,8.8,1.85,16.56,1.95,25.71c-14.04,0-27.83,0-40.83,0
		c-4.62,6.31-2.46,11.72-2.5,18.39c15.16,0,30.19,0,46.28,0c0,10.22,0,19.05,0,28.96
		C1171.49,1242.56,1145.49,1242.56,1117.75,1242.56z"/>
	<path class="st3" d="M988.59,1204.69c7-1.3,13.16-1.54,18.6-3.65c8.27-3.21,13.13-1.02,14.38,7.41c1.18,7.97,5.89,9.24,12.78,9.6
		c6.58,0.34,7.69-5.99,7.55-8.13c-0.42-6.38-5.23-9.77-11.95-10.58c-3.4-0.41-6.6-2.36-9.93-3.49
		c-22.07-7.47-32.16-24.24-26.29-43.76c5.56-18.49,28.87-30.59,48.58-25.2c23.06,6.31,27.77,12.54,26.01,34.95
		c-7.53,2.02-15.22,4.09-22.89,6.17c24.42,10.08,32.13,23.53,27.75,48.42c-2.66,15.09-18.03,26.92-35.37,27.19
		C1002.11,1244.19,996.95,1240.21,988.59,1204.69z"/>
	<path class="st3" d="M516.21,1195.18c-2.64,7.17-2.36,12.32-0.5,18.97c14.85,0,29.89,0,45.63,0c0,10.29,0,19.11,0,28.7
		c-26.6,0-52.58,0-79.34,0c0-37.63,0-74.59,0-112.36c25.36,0,50.11,0,75.28,0c1.87,8.14,1.58,15.73,0.13,24.28
		c-13.56,0-26.86,0-39.22,0c-5.73,4.66-3.84,9.28-2.62,15.27c12.5,0,25.11,0,37.85,0c2.05,9.03,1.78,16.62,0.33,25.15
		C541.39,1195.18,529.31,1195.18,516.21,1195.18z"/>
	<path class="st3" d="M980.79,1130.86c0,7.91,0,15.1,0,23.8c-13.79,0-27.57,0-39.89,0c-6.06,5.65-2.73,10.06-3.64,15.27
		c13.83,0,25.91,0,39.16,0c0,8.4,0,16,0,25.16c-11.88,0-24.43,0-36.03,0c-5.14,6.23-2.59,11.75-3.03,18.4c15.22,0,30.25,0,46.43,0
		c0,10.21,0,19.04,0,29.02c-25.42,0-51.42,0-78.58,0c0-36.53,0-73.5,0-111.65C929.41,1130.86,954.15,1130.86,980.79,1130.86z"/>
	<path class="st3" d="M1311.65,1130.27c11.94,0,21.55,0,33.63,0c0,22.09-0.05,44.42,0.03,66.75c0.03,7.68-1.99,17.23,10.33,17.06
		c11.3-0.16,15.59-7.02,15.45-17.88c-0.26-21.32-0.08-42.65-0.08-64.87c9.09-3.27,18.14-0.97,29.61-1.72
		c-2.23,30.97,4.58,61.72-3.94,91.9c-5.35,18.98-17.64,24.16-48.89,21.96c-16.41-1.16-27.5-10-31.97-26.39
		C1308.18,1189.01,1314.34,1160.47,1311.65,1130.27z"/>
	<path class="st3" d="M1745.38,1170.03c0,9.91,0,17.1,0,25.72c-13.19,0-25.78,0-39.02,0c0,6.62,0,11.76,0,18.39
		c14.28,0,28.1,0,42.6,0c0,10.29,0,19.11,0,28.7c-25.39,0-50.14,0-75.66,0c0-37.64,0-74.6,0-112.36c25.37,0,50.12,0,75.65,0
		c0,8.17,0,15.75,0,24.29c-13.81,0-27.11,0-39.48,0c-5.72,4.66-3.84,9.28-2.62,15.26
		C1719.37,1170.03,1731.97,1170.03,1745.38,1170.03z"/>
	<path class="st3" d="M811.83,1164.01c-17.64,9.42-32.15,7.42-42.28-9.36c-14.2,10.91-21.71,36.83-15.59,50.52
		c4.01,8.98,19.25,13.24,22.18,5.57c8.7-22.77,21.11-14.85,34.42-5.67c-4.22,33.23-22.39,40.88-51.36,38.7
		c-16.26-1.23-36.22-15.75-38.67-48.82c-1.74-23.56,0.02-48.15,23.44-61.53C774.02,1116.25,795.2,1126.61,811.83,1164.01z"/>
	<path class="st3" d="M477.34,1130.9c-11.33,37.29-22.62,74.46-33.87,111.5c-1.41,0.43-2.56,1.06-3.71,1.09
		c-29,0.56-29.47,0.7-38.22-26.8c-9.08-28.55-17.14-57.43-25.7-86.33c32.31-1.64,31.44-1.4,39.7,27.85
		c3.43,12.14,3.47,25.75,12.41,38.12c3.32-13.98,6.35-26.29,9.15-38.65C443.88,1127.64,443.84,1127.63,477.34,1130.9z"/>
	<path class="st3" d="M1467.09,1242.51c0-37.5,0-74.02,0-112.79c18.89,0,37.68-1.18,56.24,0.35c16.49,1.36,26.44,31.11,18.35,51.41
		c-6.66,16.72-15.13,21.02-45.06,22.24c0,12.5,0,25.09,0,38.79C1486.47,1242.51,1477.65,1242.51,1467.09,1242.51z M1496.71,1156.28
		c0,7.66,0,14.04,0,21.52c8.51-2.63,16.83-4.56,15.67-14.81C1511.4,1154.47,1504.54,1154.28,1496.71,1156.28z"/>
	<path class="st3" d="M99.63,1243.13c-12.38,0-22,0-32.76,0c0-37.11,0-74.09,0-112.26c22.98,0,46.49,0,70.81,0
		c3.57,6.78,0.87,14.63,1.44,23.75c-12.85,0-25.39,0-36.96,0c-5.27,6.19-2.67,11.72-3.07,17.33c9.93,4.27,20.52,0.08,31.06,2.64
		c3.7,7.15,1.09,15,1.51,23.05c-10.03,4.31-20.6,0.13-32.05,2.9C99.63,1213.8,99.63,1227.56,99.63,1243.13z"/>
	<path class="st3" d="M819.92,1242.56c0-37.62,0-74.14,0-111.77c10.38,0,20.43,0,31.99,0c0,25.58,0,51.57,0,79.07
		c15.14,0,28.9,0,43.71,0c0,11.52,0,21.57,0,32.7C871.18,1242.56,846.42,1242.56,819.92,1242.56z"/>
	<path class="st3" d="M1889.49,1159.13c-10.29,0-19.14,0-28.71,0c0-10.3,0-19.12,0-28.69c29.13,0,57.55,0,86.74,0
		c0,9.51,0,18.34,0,28.63c-9.5,0-18.35,0-28.64,0c0,28.65,0,55.87,0,83.8c-10.29,0-19.1,0-29.39,0
		C1889.49,1215.01,1889.49,1187.78,1889.49,1159.13z"/>
	<path class="st3" d="M677.46,1130.41c9.77,0,19.38,0,30.37,0c0,36.94,0,74.34,0,112.49c-9.77,0-19.39,0-30.37,0
		C677.46,1205.96,677.46,1168.55,677.46,1130.41z"/>
	<path class="st3" d="M1447.69,1130.88c0,37.28,0,73.81,0,111.54c-8.89,0-17.73,0-27.74,0c0-36.33,0-73.34,0-111.54
		C1428.25,1130.88,1437.08,1130.88,1447.69,1130.88z"/>
</g>
<g class="st2">
	<path class="st3" d="M215.65,1397.95c20.42-31.36,38.74-59.53,57.11-87.67c29.94-45.87,61.32-90.89,89.17-137.98
		c10.6-17.92,22.68-21.07,40.75-21.05c287.42,0.33,574.84,0.23,862.25,0.23c9.79,0,19.58,0,32.9,0
		c-27.26-42.85-54.04-83.17-78.86-124.66c-14.29-23.89-31.2-33.89-60.69-32.48c-62.55,2.99-125.35,0.91-191.76,0.91
		c23.25-46.16,52.56-84.86,77.27-126.28c1.78-2.98,3.48-6.11,5.77-8.68c27.35-30.65,29.79-59.32,0.52-92.3
		c-24.51-27.61-43.32-60.26-66.12-92.76C914.39,782.05,845.72,887.48,776.02,994.5c-95.31,0-192.97,0-294.96,0
		c168.15-258.38,334.73-514.35,503.25-773.29c256.92,392.95,512.13,783.27,769.39,1176.74
		C1239.47,1397.95,730.12,1397.95,215.65,1397.95z"/>
	<path class="st3" d="M1748.5,1867.36c-509.66,0-1017.73,0-1527.4,0c0-142.8,0-285.01,0-428.8c508.39,0,1017.09,0,1527.4,0
		C1748.5,1580.4,1748.5,1722.62,1748.5,1867.36z M1333.73,1674.43c0-17.85,0-32.57,0-49.44c-44.84,0-88.35,0-131.94,0
		c0-16.96,0-31.67,0-48.53c48.47,0,95.56,0,142.67,0c0-16.95,0-31.67,0-46.48c-66.43,0-131.41,0-196.62,0c0,80.72,0,160.02,0,239.71
		c68.16,0,134.95,0,202.11,0c0-16.05,0-30.77,0-47.63c-50.18,0-99.07,0-148.21,0c0-16.94,0-31.66,0-47.62
		C1245.88,1674.43,1288.7,1674.43,1333.73,1674.43z M716.5,1530.01c-34.06,79.74-68.18,159.61-102.62,240.24
		c20.66,0,38.49,0,56.08,0c17.82-58.51,18.28-54.01,76.01-59.87c50.13-5.08,74.23,14.29,82.33,59.4c20.57,0,38.74,0,57.6,0
		c-28.44-64.57-56.01-127.97-84.25-191.07C777.54,1524.87,777.2,1525.03,716.5,1530.01z M1051.63,1529.07
		c-21.69,61.13-43.36,122.2-67.02,188.88c-25.68-66.88-49.06-127.74-72.53-188.87c-18.41,0-36.28,0-56.3,0
		c31.71,81.17,63.06,161.4,94.51,241.91c16.99,0,33.11-0.18,49.22,0.07c8.95,0.14,14.22-2.67,17.79-11.95
		c29.44-76.63,59.49-153.03,89.57-230.05C1088.35,1529.07,1070.56,1529.07,1051.63,1529.07z"/>
	<path class="st3" d="M791.81,1678.41c-28.15,0-53.89,0-84.14,0c12.99-33.17,25.28-64.57,38.89-99.34
		C768.55,1610.87,776.22,1645.39,791.81,1678.41z"/>
</g>
<path class="st1" d="M180.81,1132.17c-1.57-36.05,13.27-49.61,34.41-55.38c19.8-5.4,44.52,5.61,51.07,24.76
	c6.53,19.07,6.77,38.78-0.07,57.75c-9.27,25.72-24.77,27.82-51.52,25.98c-17.36-1.19-32.63-19.8-33.85-39.39
	C180.57,1141.34,180.81,1136.74,180.81,1132.17z M239.51,1129.01c2.36-10.78-1.73-24.25-15.3-24.35
	c-13.68-0.1-15.07,16.3-15.21,26.9c-0.14,10.82,0.72,26.18,16.9,25.88C242.84,1157.14,238.88,1142.44,239.51,1129.01z"/>
<g class="st2">
	<path class="st4" d="M978.12,226.09c11.11-11.88,13.11,0.94,16.85,6.63c93.92,142.96,187.74,285.99,281.48,429.08
		c123.52,188.55,247.01,377.13,370.4,565.78c41.54,63.51,82.9,127.14,123.72,191.12c3.45,5.4,9.6,11.53,6.21,21.06
		c-5.95,0.27-12.24,0.81-18.53,0.81c-255.24-0.06-510.48-0.17-765.72-0.31c-4.64,0-9.28-0.55-13.91-0.84c0-85.1,0-170.2,0-255.3
		c108.83,0,217.67,0,329.06,0c-19-41.88-49.58-74.02-68.14-112.7c-20.68-43.1-51.36-55.33-97.76-51.65
		c-57.26,4.53-115.15,1.08-176.71,1.08c11.24-32.06,32.39-54.85,47.41-80.88c18.5-32.07,39.92-62.44,59.09-94.14
		c4.01-6.63,10.53-13.31,2.92-24.42c-30.03-43.87-56.68-90.05-90.31-131.47c-4.51-13.26-5.89-26.8-5.88-40.87
		C978.48,508.07,978.24,367.08,978.12,226.09z"/>
	<path class="st4" d="M978.61,1474.96c226.57-0.38,453.14-0.76,679.71-1.12c39.03-0.06,78.07-0.01,118.73-0.01
		c0,149.02,0,296.71,0,444.87c-3.95,4.8-9.95,2.82-15.22,2.82c-257.36,0-514.73-0.12-772.09-0.27c-3.71,0-7.42-0.54-11.13-0.84
		c0-32.9,0-65.79-0.01-98.69c26.85,3.47,40.36-7.73,48.35-34.48c9.98-33.38,26.72-64.68,39.45-97.3
		c14.55-37.29,27.91-75.05,42.01-113.21c-54.62-5.8-54.37-5.71-71.21,42.13c-16.53,46.96-33.65,93.71-50.2,139.67
		c-9.93,0.01-7.95-5.88-8.89-9.92C978.28,1657.4,978.45,1566.18,978.61,1474.96z M1152.64,1819.29c71.43,0,140.8,0,210.21,0
		c0-16.84,0-32.11,0-49.79c-52.31,0-103.08,0-153.19,0c0-17.79,0-33.06,0-50.71c46.98,0,92.16,0,135.98,0c0-17.84,0-33.11,0-50.78
		c-47.13,0-92.27,0-136.6,0c0-15.27,0-28.02,0-43.21c50.06,0,98.98,0,148.38,0c0-17.77,0-33.04,0-48.76c-68.91,0-136.4,0-204.78,0
		C1152.64,1657.35,1152.64,1737.19,1152.64,1819.29z"/>
	<path class="st5" d="M978.61,1821.73c0,32.9,0,65.79,0.01,98.69c-176.2,0.33-352.4,0.71-528.61,0.97
		c-85.68,0.13-171.35,0.02-258.82,0.02c0-148.91,0-296.53,0-444.46c4.2-4.77,10.16-2.89,15.46-2.89
		c252.69-0.1,505.37-0.09,758.06-0.05c4.64,0,9.28,0.62,13.91,0.95c-0.16,91.22-0.33,182.45-0.5,273.67
		c-17.6-42.99-35.08-86.04-52.85-128.97c-18.97-45.83-19.09-45.79-68.31-44.85c-1.51,0.03-3,1.03-5.75,2.04
		c27.9,71.35,56.99,142.14,82.93,214.07C942.64,1814.5,954.12,1825.31,978.61,1821.73z M796.97,1765.23
		c29.78,60.28,29.78,60.28,81.98,52.45c-28.52-64.07-61.67-125.87-83.32-191.46c-15.65-47.41-42.04-58.24-84.85-51.35
		c-1.74,0.28-3.39,1.15-6.32,2.19c-34.14,79.56-68.62,159.91-104.3,243.07c21.2,0,41.22,5.82,53.64-1.41
		c17.3-10.07,15.18-36.51,26.61-53.48C718.99,1765.23,757.11,1765.23,796.97,1765.23z"/>
	<path class="st5" d="M978.61,1184.12c0,85.1,0,170.2,0,255.3c-145.38,0.33-290.76,0.75-436.14,0.96
		c-108.12,0.15-216.24,0.03-324.36,0.03c-9.11,0-18.22,0-30.51,0c6.89-24.4,22.14-40.09,33.78-57.88
		c41.21-62.97,82.51-125.89,122.43-189.67c5.86-9.36,11.46-9.77,19.7-9.75C568.55,1183.46,773.58,1183.78,978.61,1184.12z"/>
	<path class="st5" d="M978.12,226.09c0.12,140.99,0.36,281.98,0.19,422.97c-0.02,14.08,1.37,27.61,5.88,40.87
		c-40.1,50.35-71.45,106.55-106.83,160.06c-34.5,52.18-67.61,105.28-101.83,157.65c-4.88,7.47-11.32,13.58-22.57,13.53
		c-95.81-0.45-191.62-0.26-290.61-0.26c23.24-46.21,52.83-84.88,79.26-125.44c126.24-193.74,253.17-387.03,378.66-581.25
		C939.35,284.71,957.8,254.8,978.12,226.09z"/>
	<path class="st5" d="M738.9,1619.44c15.51,38.93,28.42,71.36,41.89,105.17c-27.68,0-53.99,0-83.59,0
		C710.53,1690.98,723.25,1658.9,738.9,1619.44z"/>
</g>
<g class="st2">
	<path class="st3" d="M1093.73,968.07c66.26,0,131.4,0,198.12,0c0-66.45,0-132.02,0-198.61c93.54,0,185.5,0,278.47,0
		c0,45.53,0,90.99,0,138.05c-46.9,0-93.66,0-141.32,0c0,20.67,0,39.76,0,60.45c47.15,0,93.91,0,141.48,0c0,45.79,0,90,0,135.79
		c-47.4,0-94.16,0-141.64,0c0,20.21,0,38.87,0,58.92c66.39,0,133.24,0,201.66,0c0-129.86,0-260.72,0-392.91c45.76,0,90,0,135.53,0
		c0,175.24,0,351.3,0,528.64c-156.52,0-313.81,0-472.69,0c0-63.55,0-127.86,0-193.41c-20.65,0-39.76,0-60.47,0
		c0,63.75,0,128.07,0,193.53c-47.04,0-92.53,0-139.15,0C1093.73,1189.33,1093.73,1079.83,1093.73,968.07z"/>
	<path class="st3" d="M699.62,769.03c46.69,0,90.48,0,135.85,0c0,65.62,0,131.19,0,197.93c20.66,0,39.76,0,60.48,0
		c0-65.2,0-130.77,0-197.43c45.79,0,90.03,0,135.32,0c0,110.66,0,221.43,0,333.22c-176.13,0-352.27,0-529.99,0
		c0-64.34,0-128.66,0-193.93c-44.55,0-87.52,0-131.43,0c0,19.35,0,38.45,0,59.14c23.24,0,46.16,0,69.85,0c0,45.8,0,90.01,0,135.01
		c-68.77,0-136.86,0-205.72,0c0-111.1,0-221.42,0-333.14c134.21,0,268.9,0,405.17,0c0,64.48,0,130.06,0,196.96
		c20.62,0,39.75,0,60.48,0C699.62,902.09,699.62,836.51,699.62,769.03z"/>
	<path class="st3" d="M1962.69,769.76c0,176.1,0,351.69,0,528.6c-44.01,0-88.24,0-133.77,0c0-175.21,0-351.24,0-528.6
		C1872.26,769.76,1916.49,769.76,1962.69,769.76z"/>
	<path class="st3" d="M439.9,1165.32c0,44.32,0,88.08,0,133.1c-133.31,0-266.7,0-401.39,0c0-43.41,0-87.61,0-133.1
		C171.14,1165.32,304.53,1165.32,439.9,1165.32z M286.65,1265.78c16.41,0,30.83,0.17,45.24-0.1c4.33-0.08,11.04,2.51,10.5-6.17
		c-0.44-7.09-6.1-4.83-9.91-4.93c-11.18-0.28-22.38-0.1-33.46-0.1c-2.1-5.88-3.21-10.39,1.13-15.07c9.15,0,18.54,0.23,27.91-0.1
		c4.33-0.15,11.05,2.57,10.56-6.14c-0.4-7.11-6.05-4.85-9.87-4.96c-9.93-0.29-19.87-0.1-29.7-0.1c-2.2-5.84-3.2-10.33,1.06-15.09
		c10.39,0,21.03-0.04,31.66,0.02c4.28,0.03,7.25-0.92,6.94-6.21c-0.25-4.2-2.8-5.16-6.14-5.02c-15.38,0.63-30.93-1.77-45.93,1.4
		C286.65,1224.23,286.65,1244.14,286.65,1265.78z M209.5,1264.64c-9.17-20.8-18.37-41.66-28.63-64.92
		c-34.32,9.03-25.84,44.7-44.21,64.15c15.81,4.73,17.14-4.91,18.81-12.69c12.42,0,23.61,0,34.61,0
		C194.35,1259.3,196.24,1270.16,209.5,1264.64z M211.37,1200.85c-1.44,1.17-2.88,2.33-4.31,3.5c8.04,20.06,16.08,40.12,24.48,61.1
		c5.82-1.38,13.83,4.96,17.87-5.9c7.01-18.82,14.6-37.42,21.94-56.11c-1.79-0.95-3.58-1.89-5.37-2.84
		c-19.42,9.85-11.09,37.5-26.47,48.95C225.07,1236.63,232.26,1209.61,211.37,1200.85z"/>
	<path class="st3" d="M135.55,1429.55c0-16.67,0-33.35,0-50.14c30.74,4.49,59.95-2.2,89.38-1c29.69,1.22,33.19,6.94,31,30.6
		c-0.63,6.77-0.1,13.64-0.1,20.34c15.05,1.77,15.05,1.77,15.08-16.73c0.01-10.62,0-21.24,0-35.56c17.48,10.21,33.5,1.52,49.89,1.7
		c17.58,0.19,35.21-0.74,52.72,0.32c13.29,0.8,21.03,9.25,21.68,22.87c0.44,9.27,0.08,18.57,0.08,28.71c24.18,0,47.15,0,71.21,0
		c-0.86-16.67-4.63-28.76-25.53-25.71c-9.17,1.34-18.71,0.23-28.27,0.23c-4.49-8.05-1.48-16.17-2.33-26.27
		c18.98,0,37.79-1.76,56.11,0.46c20.78,2.52,22.39,22.75,25.98,37.77c2.61,10.94,5.58,15.24,16.54,14.5
		c12.64-0.86,10.59-9.88,10.66-17.8c0.11-11.15,0.03-22.31,0.03-33.68c9.19-2.08,16.98-1.82,26.32-0.19c0,16.83,0,33.51,0,49.95
		c30.09,3.33,31.47,3.19,29.79-24.41c-1.3-21.42,7.22-27.32,27.32-26.74c13.14,0.38,26.4-0.39,39.38,1.2
		c12.46,1.52,19.15,8.76,16.9,22.87c-1.36,8.53-0.25,17.44-0.25,25.95c4.85,4.08,9.32,3.25,14.8,1.01c0-27.48,0-54.94,0-82.28
		c8.32-5.29,16.55-0.94,26.63-3.74c0,33.27,0.47,65.04-0.25,96.79c-0.26,11.25-8.3,18.17-19.53,17.1
		c-27.49-2.63-55.44,6.19-83.02-4.64c-4.44-1.74-15.71,5.56-24.8,4.91c-54.91-3.93-109.81,1.38-164.75,0.24
		c-57.11-1.19-114.26-0.27-171.39-0.27c-56.5,0-113.01-0.19-169.51,0.08c-27.25,0.13-32.56-6.09-30.25-29.21
		c0.87-8.7,0.92-17.64-0.02-26.33c-1.89-17.33,6.98-23.56,22.57-23.64c19.4-0.1,38.79-0.02,57.71-0.02
		c10.52,16.45-8.77,40.85,11.44,53.52C131.02,1431.41,133.28,1430.48,135.55,1429.55z M368.2,1431.07
		c2.92-19.12-2.53-28.79-22.51-26.08c-8.59,1.17-17.48,0.19-26.23,0.2c-23.73,0.03-24.91,1.58-19.63,25.88
		C322.17,1431.07,344.54,1431.07,368.2,1431.07z M229.05,1430.67c0.63-23.06,0.45-24.76-9.68-25.21
		c-19.15-0.85-38.36-0.24-57.17-0.24c0,9.85,0,17.21,0,25.45C184.43,1430.67,206.07,1430.67,229.05,1430.67z M91.95,1405.12
		c-9.92,0.94-19.26-1.94-28.36,1.99c0.75,8.49-1.79,16.6,2.03,24.45c4.96,0,9.35,0.3,13.68-0.08c4.75-0.41,10.08,2.01,14.34-2.71
		c0-6.06,0.05-12.31-0.05-18.56C93.58,1409.09,92.91,1407.99,91.95,1405.12z M631.63,1430.98c2.15-27.22,1.05-28.12-28.11-23.93
		c0,7.8,0,15.59,0,23.93C613.03,1430.98,621.63,1430.98,631.63,1430.98z"/>
	<path class="st3" d="M1638.44,1378.81c34.02,0,65.31-0.34,96.59,0.14c16.06,0.25,26.81,6.74,24.89,25.55
		c-0.82,8.07-0.14,16.29-0.14,25.74c24.45,0,48.64,0,73.05,0c-1.67-43.23-37.05-16.91-57.33-28.14c-2.7-5.07,0.12-13.14-0.55-23.22
		c18.96,0,37.59-0.66,56.15,0.17c21.32,0.95,24.21,19.32,25.89,34.02c2.13,18.55,10.83,20.9,27.22,17.1c0-16.61,0-33.3,0-50.61
		c9.29,0,17.08,0,26.33,0c0,10.02-0.01,19.28,0,28.55c0.02,23.69,0.02,23.69,26,23.02c0-28.26,0-56.69,0-85.65
		c9.49,0,16.88,0,26.73,0c0,32.68,0.42,65.69-0.23,98.68c-0.22,11.11-10.7,13.42-18.85,13.31c-11.29-0.16-22.81,3.6-34.25-4.42
		c-5.75-4.03-14.19,5.28-23.15,5.21c-84.76-0.61-169.59,1.51-254.23-1.61c-22.62-0.83-44.37,6.3-66.35,0.63
		c-6.8,37.77-6.8,37.77-58.04,33.27c0-7.67,0-15.46,0-24.79c9.25,0,18.34,0,28.97,0c0-29.4,0-57.34,0-86.12c9.32,0,17.11,0,26.47,0
		c0,17,0,33.66,0,51.07c9.33,0,17.12,0,26.47,0c0-17.14,0-33.82,0-50.63c9.34-1.92,17.13-1.87,23.5-0.63
		c11.36,16.65-12.44,47.07,24.84,53.92C1638.44,1414.57,1638.44,1397.89,1638.44,1378.81z M1669.79,1431.13
		c8.37,0.57,16.43,2.05,17.96-7.38c0.93-5.73,2.34-12.32-2.06-18.66c-5.08,1.23-10.72-1.81-15.89,2.34
		C1669.79,1414.85,1669.79,1422.24,1669.79,1431.13z M1732.42,1431.13c1.68-25.88,1.68-25.88-17.32-23.96
		c-0.41,7.87-1.94,15.81,1.11,23.96C1721.4,1431.13,1726.26,1431.13,1732.42,1431.13z"/>
	<path class="st3" d="M37.65,906.74c0-46.1,0-91.09,0-137.19c44.62,0,88.83,0,134.15,0c0,45.2,0,90.64,0,137.19
		C127.84,906.74,83.63,906.74,37.65,906.74z"/>
	<path class="st3" d="M639.1,1299.16c-45.85,0-90.86,0-137.07,0c0-44.33,0-88.52,0-133.91c44.94,0,90.4,0,137.07,0
		C639.1,1208.91,639.1,1253.1,639.1,1299.16z"/>
	<path class="st3" d="M171.79,1103.32c-44.85,0-88.61,0-133.48,0c0-44.59,0-88.78,0-134.08c43.95,0,88.15,0,133.48,0
		C171.79,1013.16,171.79,1057.35,171.79,1103.32z"/>
	<path class="st3" d="M1031.2,1299.25c-44.86,0-88.62,0-133.48,0c0-44.61,0-88.79,0-134.09c43.96,0,88.16,0,133.48,0
		C1031.2,1209.1,1031.2,1253.28,1031.2,1299.25z"/>
	<path class="st3" d="M834.92,1298.97c-44.03,0-87.79,0-132.93,0c0-43.76,0-87.96,0-133.54c43.11,0,87.33,0,132.93,0
		C834.92,1208.52,834.92,1252.71,834.92,1298.97z"/>
	<path class="st3" d="M1005.92,1345.31c9.46,0,16.83,0,25.74,0c0,28.17,0,56.12,0,83.75c26.3,4.78,27,4.22,27.03-20.17
		c0.01-9.32,0-18.64,0-28.12c8.55-3.53,16.47-1.66,25.83-1.45c0,16.89,0,33.57,0,50.02c17.58,5.78,24.73,0.6,23.33-16.82
		c-0.85-10.5-0.16-21.12-0.16-31.85c8.67-3.29,16.55-1.69,25.88-1.24c0,16.9,0,33.59,0,50.09c19.14,1.84,19.22,1.8,19.34-17.06
		c0.07-10.56,0.01-21.13,0.01-32.66c8.83,0,16.62,0,25.98,0c0,16.56,0,33.22,0,50.79c6.76,0,12.04,0,18.88,0
		c0-16.55,0-33.22,0-50.82c9.26,0,17.05,0,25.42,0c4.87,16.44-4.37,35.04,6.76,50.28c2.49,3.41,7.98,1.79,13.51,0
		c0-27.68,0-55.67,0-84.39c9.18,0,16.96,0,26.3,0c0,32.48,0.35,64.32-0.17,96.13c-0.21,12.98-19.51,22.02-37,15.44
		c-8.4-3.16-14.15-5-22.05-0.08c-3.22,2.01-8.75,1.5-12.9,0.61c-14.81-3.16-29.32-1.48-44.25-0.71
		c-15.15,0.78-31.21,1.41-45.87-0.23c-25.21-2.83-49.62,2.42-74.43,1.3c-23.96-1.08-27.16-3.42-27.17-26.55
		C1005.91,1403.44,1005.92,1375.3,1005.92,1345.31z"/>
	<path class="st3" d="M818.57,1430.8c20.76,0,41.07,0,62.89,0c0-17.27,0-33.88,0-50.62c9.26-2.09,17.04-1.81,26.43-0.21
		c0,20.03,0.6,39.91-0.22,59.74c-0.5,12.02-8.19,18.25-20.49,18.23c-25.03-0.03-50.07-0.16-75.1,0.05
		c-17.58,0.14-23.5-11.42-24.49-25.77c-1.19-17.28-0.28-34.69-0.28-52.7c10.17,0,18.77,0,28.59,0
		C820.17,1395.74,815.18,1413.27,818.57,1430.8z"/>
	<path class="st3" d="M1386.34,1378.8c0,18.02,0,34.17,0,51.53c21.22,0,41.58,0,63.56,0c0-15.99,0-32.6,0-48.97
		c9.12-4.4,17.12-1.97,27.18-2.28c0,21.41,0.17,42.52-0.06,63.63c-0.14,12.81-10.81,14.57-19.47,14.88
		c-25.7,0.93-51.46,0.76-77.18,0.16c-13.43-0.31-21.5-6.18-20.42-21.98c1.24-18.06,0.29-36.27,0.29-54.61
		C1368.28,1376.64,1376.4,1379.69,1386.34,1378.8z"/>
	<path class="st3" d="M938.71,1491.84c0-9.92,0-17.29,0-26.14c9.67,0,18.74,0,29.29,0c0-29.33,0-57.23,0-85.99
		c9.24,0,17.02,0,26.6,0c0,32.62,0.23,65-0.14,97.38c-0.11,9.43-6.03,14.6-15.61,14.71
		C965.82,1491.95,952.78,1491.84,938.71,1491.84z"/>
	<path class="st3" d="M712.78,1345.52c9.05,0,16.43,0,24.66,0c0,37.3,0,73.98,0,111.54c-8.2,0-15.99,0-24.66,0
		C712.78,1420.01,712.78,1383.33,712.78,1345.52z"/>
	<path class="st3" d="M916.72,1345.52c7.83,0,15.21,0,23.85,0c0,36.83,0,73.99,0,111.78c-7.83,0-15.2,0-23.85,0
		C916.72,1420.48,916.72,1383.32,916.72,1345.52z"/>
	<path class="st3" d="M1282.21,1345.37c8.23,0,15.61,0,24.12,0c0,36.8,0,73.49,0,111.37c-7.35,0-15.14,0-24.12,0
		C1282.21,1420.66,1282.21,1383.98,1282.21,1345.37z"/>
	<path class="st3" d="M1485.73,1345.34c8.29,0,15.67,0,24.16,0c0,36.88,0,73.56,0,110.96c-7.23,3.45-15.22,1.06-24.16,1.3
		C1485.73,1420.61,1485.73,1383.92,1485.73,1345.34z"/>
	<path class="st3" d="M535.4,1367.7c0-7.94,0-14.04,0-21.08c8.36-4.1,17.81-0.14,26.56-2.16c5.5,6.83,1.38,13.96,3.51,20.84
		C555.87,1369.55,546.52,1366.61,535.4,1367.7z"/>
	<path class="st3" d="M1605.68,1488.52c0-8.79,0-14.91,0-21.33c9.37-3.69,18.58-0.56,27.56-1.89c3.6,7.48,1.97,14.14,1.54,21.11
		C1625.58,1490.05,1616.37,1486.88,1605.68,1488.52z"/>
	<path class="st3" d="M1564.4,1367.04c-10.25,0-17.61,0-25.17,0c-3.3-6.84-1.68-13.5-1.22-20.5c7.95-3.04,15.85-1.48,23.81-1.07
		C1565.9,1352.17,1562.46,1358.93,1564.4,1367.04z"/>
	<path class="st3" d="M1894.81,1346.66c0,7.03,0,13.13,0,19.6c-8.45,2.04-16.27,1.65-24.45,0.33c-2.07-6.94-1.69-13.49-0.06-21.38
		C1878.74,1345.45,1887.13,1342.97,1894.81,1346.66z"/>
	<path class="st3" d="M1904.42,1345.63c8.77,0,16.13,0,24.22,0c0,7.27,0,13.82,0,20.76c-8.5,1.74-16.31,1.68-24.22,0.16
		C1904.42,1358.98,1904.42,1352,1904.42,1345.63z"/>
	<path class="st3" d="M852.04,1365.75c0-7.03,0-13.13,0-19.6c8.45-2.04,16.27-1.65,24.45-0.33c2.07,6.94,1.69,13.49,0.06,21.38
		C868.11,1366.96,859.73,1369.44,852.04,1365.75z"/>
	<path class="st3" d="M49.02,1367.24c0-7.77,0-13.88,0-20.43c7.62-3.81,15.65-1.31,23.58-1.59c4.8,6.47,0.73,13.44,2.69,19.93
		C66.78,1369.39,58.75,1366.92,49.02,1367.24z"/>
	<path class="st3" d="M83.05,1366.57c0-7.74,0-13.86,0-20.3c8.37-2.3,16.2-1.63,24.38-0.53c2.36,6.89,1.66,13.46,0.48,20.48
		C99.84,1368.47,92.01,1367.75,83.05,1366.57z"/>
	<path class="st3" d="M429.62,1345.38c9,0,16.35,0,23.96,0c3.79,6.52,1.55,13.29,1.6,20.14c-7.81,4.31-15.9,0.55-23.5,2.27
		C427.43,1360.51,429.68,1353.75,429.62,1345.38z"/>
	<path class="st3" d="M531.61,1367.04c-10.25,0-17.61,0-25.17,0c-3.3-6.84-1.68-13.5-1.22-20.5c7.95-3.04,15.85-1.48,23.81-1.07
		C533.11,1352.17,529.67,1358.93,531.61,1367.04z"/>
	<path class="st3" d="M817.85,1366.98c0-7.72,0-13.83,0-20.27c8.03-3.39,15.97-1.51,24.06-1.32c3.55,6.66,1.61,13.37,1.41,20.35
		C835.42,1369.08,827.48,1367.2,817.85,1366.98z"/>
	<path class="st3" d="M1797.98,1487.32c0-7.7,0-13.82,0-20.1c8.18-3.67,16.12-0.6,23.86-1.9c3.31,7.61,1.99,14.23,1.3,21.23
		C1815.15,1489.34,1807.27,1488.05,1797.98,1487.32z"/>
	<path class="st3" d="M1412.39,1343.86c0,8.87,0,14.98,0,21.69c-7.2,4.18-15.35,1.06-23.33,1.81c-4.7-6.36-1.53-13.35-2.31-20.13
		C1394.38,1342.19,1402.66,1346.64,1412.39,1343.86z"/>
	<path class="st3" d="M1065.62,1464.42c0,8.87,0,14.98,0,21.69c-7.2,4.18-15.35,1.06-23.33,1.81c-4.7-6.36-1.53-13.35-2.31-20.13
		C1047.61,1462.76,1055.88,1467.21,1065.62,1464.42z"/>
	<path class="st3" d="M1074.16,1487.55c0-7.72,0-13.83,0-20.27c8.03-3.39,15.97-1.51,24.06-1.32c3.55,6.66,1.61,13.37,1.41,20.35
		C1091.73,1489.65,1083.79,1487.77,1074.16,1487.55z"/>
	<path class="st3" d="M1601.7,1487.4c-9.2,0-16.56,0-24.71,0c-4.31-5.68-0.49-12.78-2.38-19.57c8.2-4.26,16.35-1.54,24.27-2.33
		C1603.89,1471.82,1600.41,1478.88,1601.7,1487.4z"/>
	<path class="st3" d="M1446.53,1345.43c0,7.72,0,13.83,0,20.27c-8.03,3.39-15.97,1.51-24.06,1.32c-3.55-6.66-1.61-13.37-1.41-20.35
		C1428.96,1343.33,1436.91,1345.21,1446.53,1345.43z"/>
	<path class="st3" d="M171.72,1212.7c6.92,9.37,14.68,17.14,11.84,29.05c-6.96,2.4-14.18,2-21.45,0.16
		C159.66,1230.21,172.04,1223.92,171.72,1212.7z"/>
</g>
<g class="st2">
	<path class="st6" d="M1705.84,1111.12c-148.04,0-295.02,0-443.64,0c0-60.76,0-121.02,0-182.18c-19.52,0-37.4,0-56.32,0
		c0,60.37,0,120.2,0,181.37c-43.6,0-86.22,0-130.08,0c0-103.07,0-206.85,0-312.29c60.97,0,122.43,0,185.53,0
		c0-61.87,0-122.13,0-183.34c87.82,0,173.98,0,261.04,0c0,41.77,0,83.18,0,125.63c-44.01,0-87.39,0-132.06,0
		c0,18.85,0,36.74,0,56.31c43.17,0,86.98,0,131.86,0c0,44.23,0,86.82,0,131.07c-43.81,0-87.61,0-132.28,0c0,19.53,0,37.4,0,56.05
		c62.88,0,125.08,0,188.92,0c0-122.33,0-244.95,0-368.8c43.03,0,84.46,0,127.04,0C1705.84,779.54,1705.84,944.52,1705.84,1111.12z"
		/>
	<path class="st6" d="M462.1,927.5c-64.23,0-127.61,0-192.03,0c0-104.31,0-208.1,0-312.84c126.4,0,252.61,0,379.87,0
		c0,60.28,0,120.11,0,181.32c18.85,0,36.75,0,56.34,0c0-59.44,0-119.7,0-181.11c43.07,0,84.51,0,127.62,0c0,60.1,0,120.36,0,181.54
		c19.53,0,37.42,0,56.34,0c0-60.34,0-120.18,0-181.35c42.43,0,83.88,0,126.57,0c0,103.08,0,206.88,0,311.82
		c-164.65,0-329.72,0-496.45,0c0-61.24,0-122.68,0-185.07c-41.91,0-82.16,0-123.28,0c0,17.87,0,35.34,0,54.49
		c20.88,0,42.34,0,65.03,0C462.1,840.54,462.1,883.13,462.1,927.5z"/>
	<path class="st6" d="M1764.58,614.24c41.97,0,82.96,0,125.03,0c0,165.32,0,330.21,0,496.27c-41.11,0-82.53,0-125.03,0
		C1764.58,945.81,1764.58,780.92,1764.58,614.24z"/>
	<path class="st5" d="M85.81,1110.59c0-41.99,0-82.96,0-125c125.39,0,250.33,0,376.4,0c0,41.14,0,82.53,0,125
		C337.45,1110.59,212.51,1110.59,85.81,1110.59z M318.99,1078.82c18.54,0,35.31,0,56.61,0c-15.09-16.19-31.97-5.16-45.35-11.04
		c-1.46-5.2-2.75-10.58,1.55-16.19c9.92,0,19.88,0.04,29.84-0.03c2.97-0.02,5.78-0.36,6.16-4.37c0.44-4.72-2.06-6.14-6.19-6.14
		c-7.64,0.01-15.3-0.39-22.91,0.06c-11.26,0.66-10.72-5.32-8.5-12.5c12.12-6.4,28.38,5.46,41.15-11.25c-19.86,0-35.86,0-52.36,0
		C318.99,1038.2,318.99,1057.99,318.99,1078.82z M244.05,1083.32c0.89-1.58,1.79-3.16,2.68-4.74c-7.39-17.37-14.63-34.81-22.21-52.1
		c-4.87-11.11-14.48-14.52-18.76-6.49c-10,18.72-18.93,38.07-24.79,58.82c13.35,3.64,10.38-9.6,15.85-12.22
		C215.27,1063.62,232.18,1064.3,244.05,1083.32z M243.53,1016.99c6.95,18.14,14.13,34.75,19.59,51.9
		c3.38,10.6,8.67,13.66,18.65,9.82c7.84-20.22,15.68-40.44,23.52-60.65c-1.78-0.82-3.56-1.63-5.34-2.45
		c-16.44,11.77-12.22,35.6-25.79,49.76c-4.12-9.6-7.87-19.02-12.18-28.16C258.26,1029.28,261.52,1015.02,243.53,1016.99z"/>
	<path class="st5" d="M668.26,1234.77c14.44,1.13,14.18-6.83,14.16-14.84c-0.07-21.13-0.02-42.26-0.02-63.93
		c7.63-3.64,15.19-0.96,24.66-2.6c0,31,0.52,60.79-0.3,90.54c-0.27,9.7-8.22,13.52-17.64,12.47c-26.13-2.89-53.19-2.8-78.55-2.36
		c-23,0.39-47.53,1.3-70.89,1.57c-144.73,1.65-289.48,0.55-434.22,1.22c-16.89,0.08-20.81-5.22-20.48-21.16
		c1.17-56.15-6.24-49.63,49.81-49.85c8.73-0.03,17.47,0,26.5,0c4.88,16.68-2.08,33.49,4.42,48.82c0.52,1.22,6.44,0.16,11.18,0.16
		c0-16.33,0-32.04,0-51.05c16.4,8.72,31.04,1.36,45.99,1.93c16.45,0.62,32.95,0.37,49.42,0.07c12.54-0.23,18.37,5.37,17.99,17.95
		c-0.29,9.9-0.06,19.81-0.06,29.1c4.72,3.58,8.58,2.47,13.94,1.17c0-15.39,0-31.05,0-48.14c33.66,0,65.84-0.24,98.02,0.12
		c12.29,0.14,18.9,7.01,18.78,19.7c-0.08,9.28-0.02,18.57-0.02,28.72c22.77,0,44.27,0,66.56,0c1.07-15.16-2.44-25.22-20.46-23.96
		c-9.88,0.69-19.85,0.12-29.7,0.12c-4.38-7.97-1.06-15.45-2.73-24.7c18.84,0,36.29,0,53.75,0c13.43,0,15.98,11.35,20.3,20.24
		c2.44,5.01,3.87,11.04,3.86,16.6c-0.01,10.43,5.14,13.03,14.41,12.67c11.68-0.44,10.64-8.46,10.62-16.19
		c-0.03-10.48-0.01-20.97-0.01-32.39c8.41,0,15.69,0,24.73,0c0,11.84,0.21,23.44-0.07,35.04c-0.2,8.27,1.95,13.11,11.6,13.68
		c9.93,0.58,15.36-2.78,16.66-12.61c0.08-0.58,0-1.18,0.07-1.76c4.03-35.31,4.03-35.31,39.34-35.31c4.71,0,9.41-0.01,14.12,0
		c22.68,0.05,24.22,1.56,24.27,23.89C668.28,1217.86,668.26,1226.01,668.26,1234.77z M330.03,1210.54c0,9.07,0,16.31,0,23.98
		c22.3,0,43.66,0,64.96,0c1.98-23.26,1.41-23.95-19.8-23.97C360.64,1210.53,346.1,1210.54,330.03,1210.54z M265.78,1234.72
		c-2.27-9.77,5.84-22.94-10.78-23.93c-17.31-1.04-34.73-0.23-52.25-0.23c-0.82,9.19-2.14,16.51,0.83,24.16
		C223.65,1234.72,243.39,1234.72,265.78,1234.72z M615.19,1211.24c0.84,9.18-1.81,16.78,2.6,24.58c8.5-2.19,17.34,1.93,26.25-3.02
		c-1.84-7.35,1.63-15.03-2.36-21.56C632.87,1211.24,624.87,1211.24,615.19,1211.24z M137.83,1211.55c-10.02,0-18.45,0-27.11,0
		c-0.55,8.31-2.06,15.64,1.33,23.81c8.47-1.17,17.03,1.8,25.79-1.86C137.83,1226.41,137.83,1219.57,137.83,1211.55z"/>
	<path class="st5" d="M1491.49,1267.18c0-27.71,0-53.88,0-80.68c8.48,0,15.37,0,23.21,0c3.77,15.08-0.28,30.99,2.28,46.95
		c7.05,3.54,14.5,1.43,23.45,1.29c0-15.81,0-31.41,0-47.93c8.85,0,16.13,0,22.81,0c10.33,14.94-12,43.64,22.96,50.22
		c0-17.78,0-33.39,0-51.12c34.74,0,68.04-0.42,101.31,0.29c8.57,0.18,12.67,7.04,12.44,16.01c-0.27,10.45-0.06,20.9-0.06,32.2
		c23.46,0,45.62,0,67.75,0c-2.77-23.85-2.77-23.85-26.95-23.86c-8.16,0-16.32,0-24.4,0c-4.36-7.98-1.06-15.46-2.71-24.7
		c18.83,0,36.3-0.36,53.74,0.13c11.17,0.31,17.83,7.38,20.67,17.69c2.13,7.71,3,15.75,5.01,23.5c1.65,6.35,5.94,8.89,12.89,8.25
		c7.24-0.66,10.66-3.71,10.61-10.96c-0.09-12.24-0.03-24.49-0.03-37.68c8.43,0,15.71,0,24.74,0c0,8.91-0.04,17.56,0.01,26.21
		c0.13,22.45,0.4,22.7,24.18,21.71c0-26.09,0-52.32,0-78.39c8.62-3.71,16-2.12,25.26-1.48c0,30.58,0,60.97,0,91.36
		c0,8.86-5.62,10.38-12.96,10.32c-18.9-0.15-37.8-0.05-56.7-0.05c-79.42,0-158.85,0-238.27,0c-21.71,0-43.41,0-64.9,0
		c-4.42,36.05-8.21,38.41-53.71,34.06c0-7.17,0-14.45,0-23.34C1472.94,1267.18,1481.46,1267.18,1491.49,1267.18z M1675.03,1233.72
		c-0.3-12.02,4-26.29-16.81-22.24c0,7.63,0,14.95,0,22.34C1663.82,1235.94,1668.74,1235.81,1675.03,1233.72z M1632.61,1211.51
		c-6.8-0.92-11.8-2.25-16.82,0.88c-0.82,7.44-1.66,14.77,0.77,22.49C1635.25,1236.56,1632.19,1223.52,1632.61,1211.51z"/>
	<path class="st6" d="M650.03,985.71c0,41.73,0,82.65,0,124.77c-42.69,0-85.24,0-128.97,0c0-40.88,0-82.23,0-124.77
		C563.13,985.71,605.67,985.71,650.03,985.71z"/>
	<path class="st6" d="M212.03,798.44c0,43.2,0,85.31,0,128.49c-41.81,0-83.17,0-125.63,0c0-42.36,0-84.88,0-128.49
		C127.59,798.44,168.95,798.44,212.03,798.44z"/>
	<path class="st6" d="M891.9,985.02c42.12,0,83.06,0,125.06,0c0,41.82,0,83.16,0,125.58c-41.27,0-82.63,0-125.06,0
		C891.9,1069.34,891.9,1028,891.9,985.02z"/>
	<path class="st6" d="M833.51,985.32c0,42.14,0,83.48,0,125.54c-42.16,0-83.51,0-125.59,0c0-42.14,0-83.48,0-125.54
		C750.08,985.32,791.43,985.32,833.51,985.32z"/>
	<path class="st6" d="M86.42,614.2c41.98,0,82.93,0,124.98,0c0,41.74,0,83.09,0,125.55c-41.14,0-82.5,0-124.98,0
		C86.42,698.62,86.42,657.28,86.42,614.2z"/>
	<path class="st5" d="M1088.59,1186.5c8.63,0,15.52,0,23.3,0c3.2,11.67,1.03,23.96,1.44,36.05c0.22,6.39,0.92,12.33,8.75,12.48
		c7.83,0.15,9.12-5.61,9.05-12.11c-0.13-11.68-0.04-23.35-0.04-36.05c8.24,0,15.52,0,24.74,0c0,11.53,0.07,23.12-0.02,34.7
		c-0.05,6.84,0.26,13.81,9.45,13.42c7.86-0.33,8.35-6.59,8.28-12.86c-0.14-11.62-0.04-23.25-0.04-35.56c8.39,0,15.28,0,23.09,0
		c3.6,10.82,0.78,22.56,1.64,34.02c0.49,6.49,1.56,13.87,9.1,14.23c9.05,0.43,8.6-7.49,8.59-14.08c-0.05-21.64-0.02-43.29-0.02-65.8
		c8.53,0,15.8,0,24.7,0c0,29.68,0.25,58.92-0.14,88.16c-0.13,9.37-4.99,14.34-15.55,13.49c-37.87-3.03-75.94-1.32-113.84-2.04
		c-33.56-0.64-67.64,0.41-101.43,2.11c-11.48,0.58-16.13-4.48-16.21-14.76c-0.23-28.69-0.08-57.39-0.08-86.96c8.52,0,15.8,0,24.72,0
		c0,22.04,0.12,43.65-0.06,65.25c-0.07,8.37,0.49,14.98,11.7,15.27c11.85,0.31,13.55-6.06,13.19-15.59
		c-0.4-10.52-0.09-21.07-0.09-31.88c7.66-4.15,15.23-1.02,24.74-2.78c0,13.39,0.12,25.52-0.05,37.65
		c-0.09,6.56,1.32,11.43,9.02,12.44c9.14,1.19,11.26-6.02,11.77-11.62C1089.37,1211.57,1088.59,1199.3,1088.59,1186.5z"/>
	<path class="st5" d="M901.43,1186.5c0,19.09,0.1,37.16-0.04,55.22c-0.07,8.99-5.05,14.47-13.89,14.59
		c-28.15,0.35-56.32,0.08-84.47,0.17c-7.13,0.02-9.51-3.37-11.38-10.23c-5.32-19.54-2.54-39.07-3.06-59.53c9.51,0,17.95,0,27.99,0
		c0,15.93,0,31.49,0,48.54c17.22,0,32.9-0.18,48.58,0.06c9.61,0.15,11.84-5.15,11.63-13.45c-0.29-11.57-0.07-23.16-0.07-35.36
		C885.21,1186.5,892.1,1186.5,901.43,1186.5z"/>
	<path class="st5" d="M1325.4,1186.55c9.45,0,16.34,0,24.15,0c0,15.8,0,30.92,0,48.66c17.6,0,34.35,0.11,51.1-0.05
		c7.66-0.07,9.67-5.04,9.58-11.82c-0.16-11.69-0.04-23.39-0.04-36.3c7.9,0,15.17,0,24.67,0c0,18.52,0.43,37.7-0.2,56.84
		c-0.27,8.2-4.35,13.12-14.47,12.82c-26.41-0.76-52.86-0.63-79.28-0.08c-11.13,0.23-16.15-3.07-15.69-14.95
		C1325.92,1223.63,1325.4,1205.53,1325.4,1186.55z"/>
	<path class="st5" d="M957.96,1267.18c0-27.67,0-53.82,0-80.64c8.43,0,15.31,0,24.69,0c0,30.46,0.31,61.32-0.15,92.17
		c-0.19,12.63-12.51,10.9-19.67,12.44c-10.01,2.16-20.83,0.54-31.21,0.54c-3.62-8.31-1-15.66-2.08-24.52
		C939.44,1267.18,947.93,1267.18,957.96,1267.18z"/>
	<path class="st5" d="M718.84,1154.58c7.62,0,14.5,0,22.5,0c0,33.19,0,66.31,0,100.33c-6.56,3.49-14.12,0.4-22.5,1.98
		C718.84,1222.72,718.84,1189.6,718.84,1154.58z"/>
	<path class="st5" d="M932.3,1255.9c-8.19,0-15.07,0-22.87,0c0-33.64,0-66.75,0-100.87c7.39,0,14.65,0,22.87,0
		C932.3,1188.23,932.3,1221.34,932.3,1255.9z"/>
	<path class="st5" d="M1443.23,1154.72c8.12,0,15,0,22.68,0c0,33.78,0,66.89,0,100.87c-7.75,0-15.01,0-22.68,0
		C1443.23,1221.53,1443.23,1187.97,1443.23,1154.72z"/>
	<path class="st5" d="M1252.23,1154.48c7.9,0,14.78,0,22.68,0c0,33.52,0,66.64,0,100.33c-6.94,3.23-14.34,1.35-22.68,1.06
		C1252.23,1222.49,1252.23,1189.38,1252.23,1154.48z"/>
	<path class="st5" d="M1582.53,1284.21c-9.44,0-17.44,0-25.58,0c-3.28-6.38-1.78-12.56-1.2-19.05c8.52-3.52,17.09-0.6,25.38-1.72
		C1584.71,1270.38,1583.19,1276.57,1582.53,1284.21z"/>
	<path class="st5" d="M553.56,1154.78c8.93,0,16.94,0,25.08,0c1.9,6.82,1.91,12.9-0.02,19.69c-8.62,0-17.05,0-26.23,0
		C551.91,1167.15,549.98,1160.54,553.56,1154.78z"/>
	<path class="st5" d="M1406.4,1174.64c-8.38,0-15.21,0-22.37,0c-4.01-5.7-1.48-12.1-1.76-18.53c7.17-3.96,14.68-1.47,22.12-1.75
		C1408.59,1160.33,1406.05,1166.72,1406.4,1174.64z"/>
	<path class="st5" d="M1759.29,1264.61c0,7.16,0,12.83,0,18.8c-7.9,2.07-15.17,1.71-22.75,0.32c-2.09-6.43-1.75-12.52-0.22-19.05
		C1744.38,1262.66,1752.05,1263.12,1759.29,1264.61z"/>
	<path class="st5" d="M1527.31,1283.86c0-7.11,0-12.79,0-18.73c7.67-2.81,14.98-1.66,22.53-0.89c2.89,6.29,1.71,12.43,0.88,18.94
		C1543.32,1285.9,1536.01,1284.74,1527.31,1283.86z"/>
	<path class="st5" d="M1079.76,1283.98c-7.71,0-14.54,0-21.55,0c-1.96-6.8-1.89-12.87-0.14-19.38c7.53-1.7,14.78-1.64,22.87,0.08
		C1081.4,1271.55,1083.26,1278.16,1079.76,1283.98z"/>
	<path class="st5" d="M1025.52,1284.07c0-7.13,0-12.8,0-18.73c7.5-3.3,14.88-1.61,22.39-1.26c3.42,6.17,1.7,12.4,1.31,18.88
		C1041.9,1286.18,1034.53,1284.49,1025.52,1284.07z"/>
	<path class="st5" d="M1374.34,1154.88c0,7.11,0,12.79,0,18.73c-7.67,2.81-14.98,1.66-22.53,0.89c-2.89-6.29-1.71-12.43-0.88-18.94
		C1358.33,1152.84,1365.65,1154,1374.34,1154.88z"/>
	<path class="st5" d="M848.97,1174.39c0-7.11,0-12.79,0-18.73c7.67-2.81,14.98-1.66,22.53-0.89c2.89,6.29,1.71,12.43,0.88,18.94
		C864.98,1176.43,857.66,1175.26,848.97,1174.39z"/>
	<path class="st5" d="M840.7,1155.14c0,7.16,0,12.83,0,18.8c-7.9,2.07-15.17,1.71-22.75,0.32c-2.09-6.43-1.75-12.52-0.22-19.05
		C825.79,1153.18,833.46,1153.64,840.7,1155.14z"/>
	<path class="st5" d="M547.51,1154.89c0,7.29,0,12.97,0,19.49c-7.86,0-15.11,0-22.67,0c-2.37-6.43-1.74-12.52-0.37-19.49
		C531.9,1154.89,539.15,1154.89,547.51,1154.89z"/>
	<path class="st5" d="M476.8,1155.14c0,7.16,0,12.83,0,18.8c-7.9,2.07-15.17,1.71-22.75,0.32c-2.09-6.43-1.75-12.52-0.22-19.05
		C461.89,1153.18,469.56,1153.64,476.8,1155.14z"/>
	<path class="st5" d="M128.86,1174.14c-1.71-6.51-1.82-12.59,0.07-19.06c7.55-1.58,14.81-1.67,22.74,0.15c0,6.41,0,12.49,0,18.87
		C143.65,1175.76,136.39,1175.87,128.86,1174.14z"/>
	<path class="st5" d="M120.11,1154.43c0,7.17,0,12.85,0,18.89c-7.12,3.68-14.58,1.44-22.04,1.51c-3.94-6.04-1.68-12.37-1.74-18.83
		C103.55,1152.28,111.01,1154.51,120.11,1154.43z"/>
	<path class="st5" d="M1835.18,1154.62c8.25,0,15.09,0,22.81,0c0,6.62,0,12.7,0,19.2c-7.42,2.45-14.71,1.58-22.26,0.6
		C1833.07,1168.08,1833.99,1161.97,1835.18,1154.62z"/>
	<path class="st5" d="M1802.91,1154.53c8.29,0,15.13,0,22.15,0c3.67,6.1,1.69,12.37,1.52,18.73c-7.24,4.12-14.74,0.7-21.79,2.12
		C1800.71,1168.64,1802.71,1162.37,1802.91,1154.53z"/>
	<path class="st5" d="M1492,1154.53c8.29,0,15.13,0,22.15,0c3.67,6.1,1.69,12.37,1.52,18.73c-7.24,4.12-14.74,0.7-21.79,2.12
		C1489.81,1168.64,1491.8,1162.37,1492,1154.53z"/>
	<path class="st5" d="M222.93,1054.52c-7.67,0-13.89,0-21.28,0c3.3-8.56,4.12-16.96,10.38-24.92
		C217.6,1036.92,222.98,1043.52,222.93,1054.52z"/>
</g>
</svg>
